solid Kocka_2xpot
facet normal 0.0 0.0 -1.0
  outer loop
    vertex 0.0 15.999999999999998 0.0
    vertex 9.525126265847085 10.474873734152915 0.0
    vertex 0.0 0.0 0.0
  endloop
endfacet
facet normal 0.0 0.0 -1.0
  outer loop
    vertex 9.525126265847085 10.474873734152915 0.0
    vertex 0.0 15.999999999999998 0.0
    vertex 10.250000000000002 11.031088913245533 0.0
  endloop
endfacet
facet normal 0.0 0.0 -1.0
  outer loop
    vertex 10.250000000000002 11.031088913245533 0.0
    vertex 0.0 15.999999999999998 0.0
    vertex 11.094133342141179 11.380740392011738 0.0
  endloop
endfacet
facet normal 0.0 0.0 -1.0
  outer loop
    vertex 11.094133342141179 11.380740392011738 0.0
    vertex 0.0 15.999999999999998 0.0
    vertex 12.0 11.499999999999998 0.0
  endloop
endfacet
facet normal 0.0 0.0 -1.0
  outer loop
    vertex 12.0 11.499999999999998 0.0
    vertex 0.0 15.999999999999998 0.0
    vertex 48.0 15.999999999999998 0.0
  endloop
endfacet
facet normal 0.0 0.0 -1.0
  outer loop
    vertex 0.0 0.0 0.0
    vertex 9.525126265847085 10.474873734152915 0.0
    vertex 8.968911086754467 9.75 0.0
  endloop
endfacet
facet normal 0.0 0.0 -1.0
  outer loop
    vertex 0.0 0.0 0.0
    vertex 8.968911086754467 9.75 0.0
    vertex 8.619259607988262 8.905866657858823 0.0
  endloop
endfacet
facet normal 0.0 0.0 -1.0
  outer loop
    vertex 0.0 0.0 0.0
    vertex 8.619259607988262 8.905866657858823 0.0
    vertex 8.500000000000002 7.999999999999999 0.0
  endloop
endfacet
facet normal 0.0 0.0 -1.0
  outer loop
    vertex 12.0 11.499999999999998 0.0
    vertex 48.0 15.999999999999998 0.0
    vertex 12.905866657858825 11.380740392011738 0.0
  endloop
endfacet
facet normal 0.0 0.0 -1.0
  outer loop
    vertex 12.905866657858825 11.380740392011738 0.0
    vertex 48.0 15.999999999999998 0.0
    vertex 13.75 11.031088913245533 0.0
  endloop
endfacet
facet normal 0.0 0.0 -1.0
  outer loop
    vertex 13.75 11.031088913245533 0.0
    vertex 48.0 15.999999999999998 0.0
    vertex 14.474873734152917 10.474873734152915 0.0
  endloop
endfacet
facet normal 0.0 0.0 -1.0
  outer loop
    vertex 14.474873734152917 10.474873734152915 0.0
    vertex 48.0 15.999999999999998 0.0
    vertex 15.031088913245535 9.749999999999998 0.0
  endloop
endfacet
facet normal 0.0 0.0 -1.0
  outer loop
    vertex 15.031088913245535 9.749999999999998 0.0
    vertex 48.0 15.999999999999998 0.0
    vertex 15.380740392011738 8.905866657858821 0.0
  endloop
endfacet
facet normal 0.0 0.0 -1.0
  outer loop
    vertex 15.380740392011738 8.905866657858821 0.0
    vertex 48.0 15.999999999999998 0.0
    vertex 15.5 7.999999999999999 0.0
  endloop
endfacet
facet normal 0.0 0.0 -1.0
  outer loop
    vertex 15.5 7.999999999999999 0.0
    vertex 48.0 15.999999999999998 0.0
    vertex 35.09413334214118 11.380740392011738 0.0
  endloop
endfacet
facet normal 0.0 0.0 -1.0
  outer loop
    vertex 15.5 7.999999999999999 0.0
    vertex 35.09413334214118 11.380740392011738 0.0
    vertex 34.25000000000001 11.031088913245533 0.0
  endloop
endfacet
facet normal 0.0 0.0 -1.0
  outer loop
    vertex 15.5 7.999999999999999 0.0
    vertex 34.25000000000001 11.031088913245533 0.0
    vertex 33.525126265847085 10.474873734152915 0.0
  endloop
endfacet
facet normal 0.0 0.0 -1.0
  outer loop
    vertex 15.5 7.999999999999999 0.0
    vertex 33.525126265847085 10.474873734152915 0.0
    vertex 32.96891108675447 9.75 0.0
  endloop
endfacet
facet normal 0.0 0.0 -1.0
  outer loop
    vertex 15.5 7.999999999999999 0.0
    vertex 32.96891108675447 9.75 0.0
    vertex 32.61925960798827 8.905866657858823 0.0
  endloop
endfacet
facet normal 0.0 0.0 -1.0
  outer loop
    vertex 15.5 7.999999999999999 0.0
    vertex 32.61925960798827 8.905866657858823 0.0
    vertex 32.5 7.999999999999999 0.0
  endloop
endfacet
facet normal 0.0 0.0 -1.0
  outer loop
    vertex 35.09413334214118 11.380740392011738 0.0
    vertex 48.0 15.999999999999998 0.0
    vertex 36.0 11.499999999999998 0.0
  endloop
endfacet
facet normal 0.0 0.0 -1.0
  outer loop
    vertex 36.0 11.499999999999998 0.0
    vertex 48.0 15.999999999999998 0.0
    vertex 36.90586665785882 11.380740392011738 0.0
  endloop
endfacet
facet normal 0.0 0.0 -1.0
  outer loop
    vertex 36.90586665785882 11.380740392011738 0.0
    vertex 48.0 15.999999999999998 0.0
    vertex 37.75000000000001 11.031088913245533 0.0
  endloop
endfacet
facet normal 0.0 0.0 -1.0
  outer loop
    vertex 37.75000000000001 11.031088913245533 0.0
    vertex 48.0 15.999999999999998 0.0
    vertex 38.47487373415292 10.474873734152915 0.0
  endloop
endfacet
facet normal 0.0 0.0 -1.0
  outer loop
    vertex 38.47487373415292 10.474873734152915 0.0
    vertex 48.0 15.999999999999998 0.0
    vertex 39.03108891324553 9.749999999999998 0.0
  endloop
endfacet
facet normal 0.0 0.0 -1.0
  outer loop
    vertex 39.03108891324553 9.749999999999998 0.0
    vertex 48.0 15.999999999999998 0.0
    vertex 39.38074039201174 8.905866657858821 0.0
  endloop
endfacet
facet normal 0.0 0.0 -1.0
  outer loop
    vertex 39.38074039201174 8.905866657858821 0.0
    vertex 48.0 15.999999999999998 0.0
    vertex 39.5 7.999999999999999 0.0
  endloop
endfacet
facet normal 0.0 0.0 -1.0
  outer loop
    vertex 0.0 0.0 0.0
    vertex 12.0 4.5 0.0
    vertex 48.0 0.0 0.0
  endloop
endfacet
facet normal 0.0 0.0 -1.0
  outer loop
    vertex 12.0 4.5 0.0
    vertex 0.0 0.0 0.0
    vertex 11.094133342141175 4.619259607988262 0.0
  endloop
endfacet
facet normal 0.0 0.0 -1.0
  outer loop
    vertex 11.094133342141175 4.619259607988262 0.0
    vertex 0.0 0.0 0.0
    vertex 10.25 4.968911086754466 0.0
  endloop
endfacet
facet normal 0.0 0.0 -1.0
  outer loop
    vertex 10.25 4.968911086754466 0.0
    vertex 0.0 0.0 0.0
    vertex 9.525126265847083 5.525126265847085 0.0
  endloop
endfacet
facet normal 0.0 0.0 -1.0
  outer loop
    vertex 9.525126265847083 5.525126265847085 0.0
    vertex 0.0 0.0 0.0
    vertex 8.968911086754465 6.250000000000001 0.0
  endloop
endfacet
facet normal 0.0 0.0 -1.0
  outer loop
    vertex 8.968911086754465 6.250000000000001 0.0
    vertex 0.0 0.0 0.0
    vertex 8.619259607988262 7.094133342141178 0.0
  endloop
endfacet
facet normal 0.0 0.0 -1.0
  outer loop
    vertex 8.619259607988262 7.094133342141178 0.0
    vertex 0.0 0.0 0.0
    vertex 8.500000000000002 7.999999999999999 0.0
  endloop
endfacet
facet normal 0.0 0.0 -1.0
  outer loop
    vertex 48.0 0.0 0.0
    vertex 12.0 4.5 0.0
    vertex 12.905866657858821 4.619259607988261 0.0
  endloop
endfacet
facet normal 0.0 0.0 -1.0
  outer loop
    vertex 48.0 0.0 0.0
    vertex 12.905866657858821 4.619259607988261 0.0
    vertex 13.749999999999998 4.9689110867544635 0.0
  endloop
endfacet
facet normal 0.0 0.0 -1.0
  outer loop
    vertex 48.0 0.0 0.0
    vertex 13.749999999999998 4.9689110867544635 0.0
    vertex 14.474873734152915 5.525126265847082 0.0
  endloop
endfacet
facet normal 0.0 0.0 -1.0
  outer loop
    vertex 48.0 0.0 0.0
    vertex 14.474873734152915 5.525126265847082 0.0
    vertex 15.031088913245535 6.249999999999998 0.0
  endloop
endfacet
facet normal 0.0 0.0 -1.0
  outer loop
    vertex 48.0 0.0 0.0
    vertex 15.031088913245535 6.249999999999998 0.0
    vertex 15.380740392011738 7.094133342141174 0.0
  endloop
endfacet
facet normal 0.0 0.0 -1.0
  outer loop
    vertex 48.0 0.0 0.0
    vertex 15.380740392011738 7.094133342141174 0.0
    vertex 15.5 7.999999999999999 0.0
  endloop
endfacet
facet normal 0.0 0.0 -1.0
  outer loop
    vertex 48.0 0.0 0.0
    vertex 15.5 7.999999999999999 0.0
    vertex 35.09413334214118 4.619259607988262 0.0
  endloop
endfacet
facet normal 0.0 0.0 -1.0
  outer loop
    vertex 35.09413334214118 4.619259607988262 0.0
    vertex 15.5 7.999999999999999 0.0
    vertex 34.25 4.968911086754466 0.0
  endloop
endfacet
facet normal 0.0 0.0 -1.0
  outer loop
    vertex 34.25 4.968911086754466 0.0
    vertex 15.5 7.999999999999999 0.0
    vertex 33.525126265847085 5.525126265847085 0.0
  endloop
endfacet
facet normal 0.0 0.0 -1.0
  outer loop
    vertex 33.525126265847085 5.525126265847085 0.0
    vertex 15.5 7.999999999999999 0.0
    vertex 32.96891108675447 6.250000000000001 0.0
  endloop
endfacet
facet normal 0.0 0.0 -1.0
  outer loop
    vertex 32.96891108675447 6.250000000000001 0.0
    vertex 15.5 7.999999999999999 0.0
    vertex 32.61925960798826 7.094133342141178 0.0
  endloop
endfacet
facet normal 0.0 0.0 -1.0
  outer loop
    vertex 32.61925960798826 7.094133342141178 0.0
    vertex 15.5 7.999999999999999 0.0
    vertex 32.5 7.999999999999999 0.0
  endloop
endfacet
facet normal 0.0 0.0 -1.0
  outer loop
    vertex 48.0 0.0 0.0
    vertex 35.09413334214118 4.619259607988262 0.0
    vertex 36.0 4.5 0.0
  endloop
endfacet
facet normal 0.0 0.0 -1.0
  outer loop
    vertex 48.0 0.0 0.0
    vertex 36.0 4.5 0.0
    vertex 36.90586665785882 4.619259607988261 0.0
  endloop
endfacet
facet normal 0.0 0.0 -1.0
  outer loop
    vertex 48.0 0.0 0.0
    vertex 36.90586665785882 4.619259607988261 0.0
    vertex 37.75 4.9689110867544635 0.0
  endloop
endfacet
facet normal 0.0 0.0 -1.0
  outer loop
    vertex 48.0 0.0 0.0
    vertex 37.75 4.9689110867544635 0.0
    vertex 38.47487373415292 5.525126265847082 0.0
  endloop
endfacet
facet normal 0.0 0.0 -1.0
  outer loop
    vertex 48.0 0.0 0.0
    vertex 38.47487373415292 5.525126265847082 0.0
    vertex 39.03108891324553 6.249999999999998 0.0
  endloop
endfacet
facet normal 0.0 0.0 -1.0
  outer loop
    vertex 48.0 0.0 0.0
    vertex 39.03108891324553 6.249999999999998 0.0
    vertex 39.38074039201174 7.094133342141174 0.0
  endloop
endfacet
facet normal 0.0 0.0 -1.0
  outer loop
    vertex 48.0 0.0 0.0
    vertex 39.38074039201174 7.094133342141174 0.0
    vertex 39.5 7.999999999999999 0.0
  endloop
endfacet
facet normal 0.0 0.0 -1.0
  outer loop
    vertex 48.0 0.0 0.0
    vertex 39.5 7.999999999999999 0.0
    vertex 48.0 15.999999999999998 0.0
  endloop
endfacet
facet normal -0.4999999999999985 0.8660254037844397 0.0
  outer loop
    vertex 37.75 4.9689110867544635 1.9999999999999998
    vertex 38.47487373415292 5.525126265847082 0.0
    vertex 37.75 4.9689110867544635 0.0
  endloop
endfacet
facet normal -0.707106781186547 0.7071067811865482 0.0
  outer loop
    vertex 38.47487373415292 5.525126265847082 0.0
    vertex 37.75 4.9689110867544635 1.9999999999999998
    vertex 38.47487373415292 5.525126265847082 1.9999999999999998
  endloop
endfacet
facet normal -0.25881904510252024 0.9659258262890684 0.0
  outer loop
    vertex 36.90586665785882 4.619259607988261 1.9999999999999998
    vertex 37.75 4.9689110867544635 0.0
    vertex 36.90586665785882 4.619259607988261 0.0
  endloop
endfacet
facet normal -0.4999999999999985 0.8660254037844397 0.0
  outer loop
    vertex 37.75 4.9689110867544635 0.0
    vertex 36.90586665785882 4.619259607988261 1.9999999999999998
    vertex 37.75 4.9689110867544635 1.9999999999999998
  endloop
endfacet
facet normal 3.5644439582587626e-16 1.0 0.0
  outer loop
    vertex 36.0 4.5 1.9999999999999998
    vertex 36.90586665785882 4.619259607988261 0.0
    vertex 36.0 4.5 0.0
  endloop
endfacet
facet normal -0.25881904510252024 0.9659258262890684 0.0
  outer loop
    vertex 36.90586665785882 4.619259607988261 0.0
    vertex 36.0 4.5 1.9999999999999998
    vertex 36.90586665785882 4.619259607988261 1.9999999999999998
  endloop
endfacet
facet normal 0.2588190451025209 0.9659258262890682 0.0
  outer loop
    vertex 35.09413334214118 4.619259607988262 1.9999999999999998
    vertex 36.0 4.5 0.0
    vertex 35.09413334214118 4.619259607988262 0.0
  endloop
endfacet
facet normal 3.5644439582587626e-16 1.0 0.0
  outer loop
    vertex 36.0 4.5 0.0
    vertex 35.09413334214118 4.619259607988262 1.9999999999999998
    vertex 36.0 4.5 1.9999999999999998
  endloop
endfacet
facet normal 0.5000000000000006 0.8660254037844383 0.0
  outer loop
    vertex 34.25 4.968911086754466 1.9999999999999998
    vertex 35.09413334214118 4.619259607988262 0.0
    vertex 34.25 4.968911086754466 0.0
  endloop
endfacet
facet normal 0.2588190451025209 0.9659258262890682 0.0
  outer loop
    vertex 35.09413334214118 4.619259607988262 0.0
    vertex 34.25 4.968911086754466 1.9999999999999998
    vertex 35.09413334214118 4.619259607988262 1.9999999999999998
  endloop
endfacet
facet normal 0.7071067811865486 0.7071067811865466 0.0
  outer loop
    vertex 33.525126265847085 5.525126265847085 1.9999999999999998
    vertex 34.25 4.968911086754466 0.0
    vertex 33.525126265847085 5.525126265847085 0.0
  endloop
endfacet
facet normal 0.5000000000000006 0.8660254037844383 0.0
  outer loop
    vertex 34.25 4.968911086754466 0.0
    vertex 33.525126265847085 5.525126265847085 1.9999999999999998
    vertex 34.25 4.968911086754466 1.9999999999999998
  endloop
endfacet
facet normal 0.8660254037844382 0.5000000000000009 0.0
  outer loop
    vertex 32.96891108675447 6.250000000000001 0.0
    vertex 33.525126265847085 5.525126265847085 1.9999999999999998
    vertex 33.525126265847085 5.525126265847085 0.0
  endloop
endfacet
facet normal 0.7071067811865486 0.7071067811865466 0.0
  outer loop
    vertex 33.525126265847085 5.525126265847085 1.9999999999999998
    vertex 32.96891108675447 6.250000000000001 0.0
    vertex 32.96891108675447 6.250000000000001 1.9999999999999998
  endloop
endfacet
facet normal 0.9659258262890683 0.2588190451025209 0.0
  outer loop
    vertex 32.61925960798826 7.094133342141178 0.0
    vertex 32.96891108675447 6.250000000000001 1.9999999999999998
    vertex 32.96891108675447 6.250000000000001 0.0
  endloop
endfacet
facet normal 0.8660254037844382 0.5000000000000009 0.0
  outer loop
    vertex 32.96891108675447 6.250000000000001 1.9999999999999998
    vertex 32.61925960798826 7.094133342141178 0.0
    vertex 32.61925960798826 7.094133342141178 1.9999999999999998
  endloop
endfacet
facet normal 1.0 -2.869377386398303e-15 0.0
  outer loop
    vertex 32.5 7.999999999999999 0.0
    vertex 32.61925960798826 7.094133342141178 1.9999999999999998
    vertex 32.61925960798826 7.094133342141178 0.0
  endloop
endfacet
facet normal 0.9659258262890683 0.2588190451025209 0.0
  outer loop
    vertex 32.61925960798826 7.094133342141178 1.9999999999999998
    vertex 32.5 7.999999999999999 0.0
    vertex 32.5 7.999999999999999 1.9999999999999998
  endloop
endfacet
facet normal 0.9659258262890683 -0.25881904510252096 0.0
  outer loop
    vertex 32.61925960798827 8.905866657858823 0.0
    vertex 32.5 7.999999999999999 1.9999999999999998
    vertex 32.5 7.999999999999999 0.0
  endloop
endfacet
facet normal 1.0 -2.869377386398303e-15 0.0
  outer loop
    vertex 32.5 7.999999999999999 1.9999999999999998
    vertex 32.61925960798827 8.905866657858823 0.0
    vertex 32.61925960798827 8.905866657858823 1.9999999999999998
  endloop
endfacet
facet normal 0.8660254037844393 -0.4999999999999989 0.0
  outer loop
    vertex 32.96891108675447 9.75 0.0
    vertex 32.61925960798827 8.905866657858823 1.9999999999999998
    vertex 32.61925960798827 8.905866657858823 0.0
  endloop
endfacet
facet normal 0.9659258262890683 -0.25881904510252096 0.0
  outer loop
    vertex 32.61925960798827 8.905866657858823 1.9999999999999998
    vertex 32.96891108675447 9.75 0.0
    vertex 32.96891108675447 9.75 1.9999999999999998
  endloop
endfacet
facet normal 0.7071067811865468 -0.7071067811865485 0.0
  outer loop
    vertex 33.525126265847085 10.474873734152915 0.0
    vertex 32.96891108675447 9.75 1.9999999999999998
    vertex 32.96891108675447 9.75 0.0
  endloop
endfacet
facet normal 0.8660254037844393 -0.4999999999999989 0.0
  outer loop
    vertex 32.96891108675447 9.75 1.9999999999999998
    vertex 33.525126265847085 10.474873734152915 0.0
    vertex 33.525126265847085 10.474873734152915 1.9999999999999998
  endloop
endfacet
facet normal 0.4999999999999998 -0.8660254037844387 0.0
  outer loop
    vertex 34.25000000000001 11.031088913245533 1.9999999999999998
    vertex 33.525126265847085 10.474873734152915 0.0
    vertex 34.25000000000001 11.031088913245533 0.0
  endloop
endfacet
facet normal 0.7071067811865468 -0.7071067811865485 0.0
  outer loop
    vertex 33.525126265847085 10.474873734152915 0.0
    vertex 34.25000000000001 11.031088913245533 1.9999999999999998
    vertex 33.525126265847085 10.474873734152915 1.9999999999999998
  endloop
endfacet
facet normal 0.25881904510252174 -0.9659258262890681 0.0
  outer loop
    vertex 35.09413334214118 11.380740392011738 1.9999999999999998
    vertex 34.25000000000001 11.031088913245533 0.0
    vertex 35.09413334214118 11.380740392011738 0.0
  endloop
endfacet
facet normal 0.4999999999999998 -0.8660254037844387 0.0
  outer loop
    vertex 34.25000000000001 11.031088913245533 0.0
    vertex 35.09413334214118 11.380740392011738 1.9999999999999998
    vertex 34.25000000000001 11.031088913245533 1.9999999999999998
  endloop
endfacet
facet normal 0.0 -1.0 0.0
  outer loop
    vertex 36.0 11.499999999999998 1.9999999999999998
    vertex 35.09413334214118 11.380740392011738 0.0
    vertex 36.0 11.499999999999998 0.0
  endloop
endfacet
facet normal 0.25881904510252174 -0.9659258262890681 0.0
  outer loop
    vertex 35.09413334214118 11.380740392011738 0.0
    vertex 36.0 11.499999999999998 1.9999999999999998
    vertex 35.09413334214118 11.380740392011738 1.9999999999999998
  endloop
endfacet
facet normal -0.2588190451025205 -0.9659258262890683 0.0
  outer loop
    vertex 36.90586665785882 11.380740392011738 1.9999999999999998
    vertex 36.0 11.499999999999998 0.0
    vertex 36.90586665785882 11.380740392011738 0.0
  endloop
endfacet
facet normal 0.0 -1.0 0.0
  outer loop
    vertex 36.0 11.499999999999998 0.0
    vertex 36.90586665785882 11.380740392011738 1.9999999999999998
    vertex 36.0 11.499999999999998 1.9999999999999998
  endloop
endfacet
facet normal -0.5000000000000003 -0.8660254037844384 0.0
  outer loop
    vertex 37.75000000000001 11.031088913245533 1.9999999999999998
    vertex 36.90586665785882 11.380740392011738 0.0
    vertex 37.75000000000001 11.031088913245533 0.0
  endloop
endfacet
facet normal -0.2588190451025205 -0.9659258262890683 0.0
  outer loop
    vertex 36.90586665785882 11.380740392011738 0.0
    vertex 37.75000000000001 11.031088913245533 1.9999999999999998
    vertex 36.90586665785882 11.380740392011738 1.9999999999999998
  endloop
endfacet
facet normal -0.7071067811865483 -0.7071067811865468 0.0
  outer loop
    vertex 38.47487373415292 10.474873734152915 1.9999999999999998
    vertex 37.75000000000001 11.031088913245533 0.0
    vertex 38.47487373415292 10.474873734152915 0.0
  endloop
endfacet
facet normal -0.5000000000000003 -0.8660254037844384 0.0
  outer loop
    vertex 37.75000000000001 11.031088913245533 0.0
    vertex 38.47487373415292 10.474873734152915 1.9999999999999998
    vertex 37.75000000000001 11.031088913245533 1.9999999999999998
  endloop
endfacet
facet normal -0.7071067811865483 -0.7071067811865468 0.0
  outer loop
    vertex 38.47487373415292 10.474873734152915 1.9999999999999998
    vertex 39.03108891324553 9.749999999999998 0.0
    vertex 39.03108891324553 9.749999999999998 1.9999999999999998
  endloop
endfacet
facet normal -0.8660254037844396 -0.4999999999999984 0.0
  outer loop
    vertex 39.03108891324553 9.749999999999998 0.0
    vertex 38.47487373415292 10.474873734152915 1.9999999999999998
    vertex 38.47487373415292 10.474873734152915 0.0
  endloop
endfacet
facet normal -0.8660254037844396 -0.4999999999999984 0.0
  outer loop
    vertex 39.03108891324553 9.749999999999998 1.9999999999999998
    vertex 39.38074039201174 8.905866657858821 0.0
    vertex 39.38074039201174 8.905866657858821 1.9999999999999998
  endloop
endfacet
facet normal -0.9659258262890683 -0.2588190451025211 0.0
  outer loop
    vertex 39.38074039201174 8.905866657858821 0.0
    vertex 39.03108891324553 9.749999999999998 1.9999999999999998
    vertex 39.03108891324553 9.749999999999998 0.0
  endloop
endfacet
facet normal -0.9659258262890683 -0.2588190451025211 0.0
  outer loop
    vertex 39.38074039201174 8.905866657858821 1.9999999999999998
    vertex 39.5 7.999999999999999 0.0
    vertex 39.5 7.999999999999999 1.9999999999999998
  endloop
endfacet
facet normal -1.0 -1.9604441770423197e-16 0.0
  outer loop
    vertex 39.5 7.999999999999999 0.0
    vertex 39.38074039201174 8.905866657858821 1.9999999999999998
    vertex 39.38074039201174 8.905866657858821 0.0
  endloop
endfacet
facet normal -1.0 -1.9604441770423197e-16 0.0
  outer loop
    vertex 39.5 7.999999999999999 1.9999999999999998
    vertex 39.38074039201174 7.094133342141174 0.0
    vertex 39.38074039201174 7.094133342141174 1.9999999999999998
  endloop
endfacet
facet normal -0.9659258262890682 0.25881904510252113 0.0
  outer loop
    vertex 39.38074039201174 7.094133342141174 0.0
    vertex 39.5 7.999999999999999 1.9999999999999998
    vertex 39.5 7.999999999999999 0.0
  endloop
endfacet
facet normal -0.9659258262890682 0.25881904510252113 0.0
  outer loop
    vertex 39.38074039201174 7.094133342141174 1.9999999999999998
    vertex 39.03108891324553 6.249999999999998 0.0
    vertex 39.03108891324553 6.249999999999998 1.9999999999999998
  endloop
endfacet
facet normal -0.8660254037844395 0.4999999999999987 0.0
  outer loop
    vertex 39.03108891324553 6.249999999999998 0.0
    vertex 39.38074039201174 7.094133342141174 1.9999999999999998
    vertex 39.38074039201174 7.094133342141174 0.0
  endloop
endfacet
facet normal -0.8660254037844395 0.4999999999999987 0.0
  outer loop
    vertex 39.03108891324553 6.249999999999998 1.9999999999999998
    vertex 38.47487373415292 5.525126265847082 0.0
    vertex 38.47487373415292 5.525126265847082 1.9999999999999998
  endloop
endfacet
facet normal -0.707106781186547 0.7071067811865482 0.0
  outer loop
    vertex 38.47487373415292 5.525126265847082 0.0
    vertex 39.03108891324553 6.249999999999998 1.9999999999999998
    vertex 39.03108891324553 6.249999999999998 0.0
  endloop
endfacet
facet normal 0.8660254037844389 0.49999999999999956 0.0
  outer loop
    vertex 8.968911086754465 6.250000000000001 0.0
    vertex 9.525126265847083 5.525126265847085 1.9999999999999998
    vertex 9.525126265847083 5.525126265847085 0.0
  endloop
endfacet
facet normal 0.7071067811865477 0.7071067811865474 0.0
  outer loop
    vertex 9.525126265847083 5.525126265847085 1.9999999999999998
    vertex 8.968911086754465 6.250000000000001 0.0
    vertex 8.968911086754465 6.250000000000001 1.9999999999999998
  endloop
endfacet
facet normal 0.9659258262890684 0.25881904510252035 0.0
  outer loop
    vertex 8.619259607988262 7.094133342141178 0.0
    vertex 8.968911086754465 6.250000000000001 1.9999999999999998
    vertex 8.968911086754465 6.250000000000001 0.0
  endloop
endfacet
facet normal 0.8660254037844389 0.49999999999999956 0.0
  outer loop
    vertex 8.968911086754465 6.250000000000001 1.9999999999999998
    vertex 8.619259607988262 7.094133342141178 0.0
    vertex 8.619259607988262 7.094133342141178 1.9999999999999998
  endloop
endfacet
facet normal 1.0 2.1386663749552573e-16 0.0
  outer loop
    vertex 8.500000000000002 7.999999999999999 0.0
    vertex 8.619259607988262 7.094133342141178 1.9999999999999998
    vertex 8.619259607988262 7.094133342141178 0.0
  endloop
endfacet
facet normal 0.9659258262890684 0.25881904510252035 0.0
  outer loop
    vertex 8.619259607988262 7.094133342141178 1.9999999999999998
    vertex 8.500000000000002 7.999999999999999 0.0
    vertex 8.500000000000002 7.999999999999999 1.9999999999999998
  endloop
endfacet
facet normal 0.9659258262890682 -0.2588190451025208 0.0
  outer loop
    vertex 8.619259607988262 8.905866657858823 0.0
    vertex 8.500000000000002 7.999999999999999 1.9999999999999998
    vertex 8.500000000000002 7.999999999999999 0.0
  endloop
endfacet
facet normal 1.0 2.1386663749552573e-16 0.0
  outer loop
    vertex 8.500000000000002 7.999999999999999 1.9999999999999998
    vertex 8.619259607988262 8.905866657858823 0.0
    vertex 8.619259607988262 8.905866657858823 1.9999999999999998
  endloop
endfacet
facet normal 0.8660254037844383 -0.5000000000000006 0.0
  outer loop
    vertex 8.968911086754467 9.75 0.0
    vertex 8.619259607988262 8.905866657858823 1.9999999999999998
    vertex 8.619259607988262 8.905866657858823 0.0
  endloop
endfacet
facet normal 0.9659258262890682 -0.2588190451025208 0.0
  outer loop
    vertex 8.619259607988262 8.905866657858823 1.9999999999999998
    vertex 8.968911086754467 9.75 0.0
    vertex 8.968911086754467 9.75 1.9999999999999998
  endloop
endfacet
facet normal 0.7071067811865471 -0.7071067811865479 0.0
  outer loop
    vertex 9.525126265847085 10.474873734152915 0.0
    vertex 8.968911086754467 9.75 1.9999999999999998
    vertex 8.968911086754467 9.75 0.0
  endloop
endfacet
facet normal 0.8660254037844383 -0.5000000000000006 0.0
  outer loop
    vertex 8.968911086754467 9.75 1.9999999999999998
    vertex 9.525126265847085 10.474873734152915 0.0
    vertex 9.525126265847085 10.474873734152915 1.9999999999999998
  endloop
endfacet
facet normal 0.4999999999999999 -0.8660254037844387 0.0
  outer loop
    vertex 10.250000000000002 11.031088913245533 1.9999999999999998
    vertex 9.525126265847085 10.474873734152915 0.0
    vertex 10.250000000000002 11.031088913245533 0.0
  endloop
endfacet
facet normal 0.7071067811865471 -0.7071067811865479 0.0
  outer loop
    vertex 9.525126265847085 10.474873734152915 0.0
    vertex 10.250000000000002 11.031088913245533 1.9999999999999998
    vertex 9.525126265847085 10.474873734152915 1.9999999999999998
  endloop
endfacet
facet normal 0.25881904510252074 -0.9659258262890683 0.0
  outer loop
    vertex 11.094133342141179 11.380740392011738 1.9999999999999998
    vertex 10.250000000000002 11.031088913245533 0.0
    vertex 11.094133342141179 11.380740392011738 0.0
  endloop
endfacet
facet normal 0.4999999999999999 -0.8660254037844387 0.0
  outer loop
    vertex 10.250000000000002 11.031088913245533 0.0
    vertex 11.094133342141179 11.380740392011738 1.9999999999999998
    vertex 10.250000000000002 11.031088913245533 1.9999999999999998
  endloop
endfacet
facet normal 2.1386663749552573e-16 -1.0 0.0
  outer loop
    vertex 12.0 11.499999999999998 1.9999999999999998
    vertex 11.094133342141179 11.380740392011738 0.0
    vertex 12.0 11.499999999999998 0.0
  endloop
endfacet
facet normal 0.25881904510252074 -0.9659258262890683 0.0
  outer loop
    vertex 11.094133342141179 11.380740392011738 0.0
    vertex 12.0 11.499999999999998 1.9999999999999998
    vertex 11.094133342141179 11.380740392011738 1.9999999999999998
  endloop
endfacet
facet normal -0.25881904510252113 -0.9659258262890682 0.0
  outer loop
    vertex 12.905866657858825 11.380740392011738 1.9999999999999998
    vertex 12.0 11.499999999999998 0.0
    vertex 12.905866657858825 11.380740392011738 0.0
  endloop
endfacet
facet normal 2.1386663749552573e-16 -1.0 0.0
  outer loop
    vertex 12.0 11.499999999999998 0.0
    vertex 12.905866657858825 11.380740392011738 1.9999999999999998
    vertex 12.0 11.499999999999998 1.9999999999999998
  endloop
endfacet
facet normal -0.5 -0.8660254037844386 0.0
  outer loop
    vertex 13.75 11.031088913245533 1.9999999999999998
    vertex 12.905866657858825 11.380740392011738 0.0
    vertex 13.75 11.031088913245533 0.0
  endloop
endfacet
facet normal -0.25881904510252113 -0.9659258262890682 0.0
  outer loop
    vertex 12.905866657858825 11.380740392011738 0.0
    vertex 13.75 11.031088913245533 1.9999999999999998
    vertex 12.905866657858825 11.380740392011738 1.9999999999999998
  endloop
endfacet
facet normal -0.7071067811865477 -0.7071067811865475 0.0
  outer loop
    vertex 14.474873734152917 10.474873734152915 1.9999999999999998
    vertex 13.75 11.031088913245533 0.0
    vertex 14.474873734152917 10.474873734152915 0.0
  endloop
endfacet
facet normal -0.5 -0.8660254037844386 0.0
  outer loop
    vertex 13.75 11.031088913245533 0.0
    vertex 14.474873734152917 10.474873734152915 1.9999999999999998
    vertex 13.75 11.031088913245533 1.9999999999999998
  endloop
endfacet
facet normal -0.7071067811865477 -0.7071067811865475 0.0
  outer loop
    vertex 14.474873734152917 10.474873734152915 1.9999999999999998
    vertex 15.031088913245535 9.749999999999998 0.0
    vertex 15.031088913245535 9.749999999999998 1.9999999999999998
  endloop
endfacet
facet normal -0.8660254037844388 -0.49999999999999967 0.0
  outer loop
    vertex 15.031088913245535 9.749999999999998 0.0
    vertex 14.474873734152917 10.474873734152915 1.9999999999999998
    vertex 14.474873734152917 10.474873734152915 0.0
  endloop
endfacet
facet normal -0.8660254037844388 -0.49999999999999967 0.0
  outer loop
    vertex 15.031088913245535 9.749999999999998 1.9999999999999998
    vertex 15.380740392011738 8.905866657858821 0.0
    vertex 15.380740392011738 8.905866657858821 1.9999999999999998
  endloop
endfacet
facet normal -0.9659258262890682 -0.2588190451025209 0.0
  outer loop
    vertex 15.380740392011738 8.905866657858821 0.0
    vertex 15.031088913245535 9.749999999999998 1.9999999999999998
    vertex 15.031088913245535 9.749999999999998 0.0
  endloop
endfacet
facet normal -0.9659258262890682 -0.2588190451025209 0.0
  outer loop
    vertex 15.380740392011738 8.905866657858821 1.9999999999999998
    vertex 15.5 7.999999999999999 0.0
    vertex 15.5 7.999999999999999 1.9999999999999998
  endloop
endfacet
facet normal -1.0 -2.1386663749552573e-16 0.0
  outer loop
    vertex 15.5 7.999999999999999 0.0
    vertex 15.380740392011738 8.905866657858821 1.9999999999999998
    vertex 15.380740392011738 8.905866657858821 0.0
  endloop
endfacet
facet normal -1.0 -2.1386663749552573e-16 0.0
  outer loop
    vertex 15.5 7.999999999999999 1.9999999999999998
    vertex 15.380740392011738 7.094133342141174 0.0
    vertex 15.380740392011738 7.094133342141174 1.9999999999999998
  endloop
endfacet
facet normal -0.9659258262890682 0.258819045102521 0.0
  outer loop
    vertex 15.380740392011738 7.094133342141174 0.0
    vertex 15.5 7.999999999999999 1.9999999999999998
    vertex 15.5 7.999999999999999 0.0
  endloop
endfacet
facet normal -0.9659258262890682 0.258819045102521 0.0
  outer loop
    vertex 15.380740392011738 7.094133342141174 1.9999999999999998
    vertex 15.031088913245535 6.249999999999998 0.0
    vertex 15.031088913245535 6.249999999999998 1.9999999999999998
  endloop
endfacet
facet normal -0.866025403784438 0.500000000000001 0.0
  outer loop
    vertex 15.031088913245535 6.249999999999998 0.0
    vertex 15.380740392011738 7.094133342141174 1.9999999999999998
    vertex 15.380740392011738 7.094133342141174 0.0
  endloop
endfacet
facet normal -0.866025403784438 0.500000000000001 0.0
  outer loop
    vertex 15.031088913245535 6.249999999999998 1.9999999999999998
    vertex 14.474873734152915 5.525126265847082 0.0
    vertex 14.474873734152915 5.525126265847082 1.9999999999999998
  endloop
endfacet
facet normal -0.7071067811865468 0.7071067811865483 0.0
  outer loop
    vertex 14.474873734152915 5.525126265847082 0.0
    vertex 15.031088913245535 6.249999999999998 1.9999999999999998
    vertex 15.031088913245535 6.249999999999998 0.0
  endloop
endfacet
facet normal -0.4999999999999998 0.8660254037844388 0.0
  outer loop
    vertex 13.749999999999998 4.9689110867544635 1.9999999999999998
    vertex 14.474873734152915 5.525126265847082 0.0
    vertex 13.749999999999998 4.9689110867544635 0.0
  endloop
endfacet
facet normal -0.7071067811865468 0.7071067811865483 0.0
  outer loop
    vertex 14.474873734152915 5.525126265847082 0.0
    vertex 13.749999999999998 4.9689110867544635 1.9999999999999998
    vertex 14.474873734152915 5.525126265847082 1.9999999999999998
  endloop
endfacet
facet normal -0.2588190451025206 0.9659258262890684 0.0
  outer loop
    vertex 12.905866657858821 4.619259607988261 1.9999999999999998
    vertex 13.749999999999998 4.9689110867544635 0.0
    vertex 12.905866657858821 4.619259607988261 0.0
  endloop
endfacet
facet normal -0.4999999999999998 0.8660254037844388 0.0
  outer loop
    vertex 13.749999999999998 4.9689110867544635 0.0
    vertex 12.905866657858821 4.619259607988261 1.9999999999999998
    vertex 13.749999999999998 4.9689110867544635 1.9999999999999998
  endloop
endfacet
facet normal 4.72288824469286e-16 1.0 0.0
  outer loop
    vertex 12.0 4.5 1.9999999999999998
    vertex 12.905866657858821 4.619259607988261 0.0
    vertex 12.0 4.5 0.0
  endloop
endfacet
facet normal -0.2588190451025206 0.9659258262890684 0.0
  outer loop
    vertex 12.905866657858821 4.619259607988261 0.0
    vertex 12.0 4.5 1.9999999999999998
    vertex 12.905866657858821 4.619259607988261 1.9999999999999998
  endloop
endfacet
facet normal 0.25881904510252135 0.965925826289068 0.0
  outer loop
    vertex 11.094133342141175 4.619259607988262 1.9999999999999998
    vertex 12.0 4.5 0.0
    vertex 11.094133342141175 4.619259607988262 0.0
  endloop
endfacet
facet normal 4.72288824469286e-16 1.0 0.0
  outer loop
    vertex 12.0 4.5 0.0
    vertex 11.094133342141175 4.619259607988262 1.9999999999999998
    vertex 12.0 4.5 1.9999999999999998
  endloop
endfacet
facet normal 0.5000000000000007 0.8660254037844383 0.0
  outer loop
    vertex 10.25 4.968911086754466 1.9999999999999998
    vertex 11.094133342141175 4.619259607988262 0.0
    vertex 10.25 4.968911086754466 0.0
  endloop
endfacet
facet normal 0.25881904510252135 0.965925826289068 0.0
  outer loop
    vertex 11.094133342141175 4.619259607988262 0.0
    vertex 10.25 4.968911086754466 1.9999999999999998
    vertex 11.094133342141175 4.619259607988262 1.9999999999999998
  endloop
endfacet
facet normal 0.7071067811865477 0.7071067811865474 0.0
  outer loop
    vertex 9.525126265847083 5.525126265847085 1.9999999999999998
    vertex 10.25 4.968911086754466 0.0
    vertex 9.525126265847083 5.525126265847085 0.0
  endloop
endfacet
facet normal 0.5000000000000007 0.8660254037844383 0.0
  outer loop
    vertex 10.25 4.968911086754466 0.0
    vertex 9.525126265847083 5.525126265847085 1.9999999999999998
    vertex 10.25 4.968911086754466 1.9999999999999998
  endloop
endfacet
facet normal 0.0 1.0 0.0
  outer loop
    vertex 0.0 15.999999999999998 14.999999999999998
    vertex 48.0 15.999999999999998 0.0
    vertex 0.0 15.999999999999998 0.0
  endloop
endfacet
facet normal 0.0 1.0 0.0
  outer loop
    vertex 48.0 15.999999999999998 0.0
    vertex 0.0 15.999999999999998 14.999999999999998
    vertex 48.0 15.999999999999998 14.999999999999998
  endloop
endfacet
facet normal -1.0 0.0 0.0
  outer loop
    vertex 0.0 15.999999999999998 14.999999999999998
    vertex 0.0 0.0 0.0
    vertex 0.0 0.0 14.999999999999998
  endloop
endfacet
facet normal -1.0 0.0 0.0
  outer loop
    vertex 0.0 0.0 0.0
    vertex 0.0 15.999999999999998 14.999999999999998
    vertex 0.0 15.999999999999998 0.0
  endloop
endfacet
facet normal -0.0 -1.0 -0.0
  outer loop
    vertex 48.0 0.0 14.999999999999998
    vertex 0.0 0.0 0.0
    vertex 48.0 0.0 0.0
  endloop
endfacet
facet normal -0.0 -1.0 -0.0
  outer loop
    vertex 0.0 0.0 0.0
    vertex 48.0 0.0 14.999999999999998
    vertex 0.0 0.0 14.999999999999998
  endloop
endfacet
facet normal -1.0 0.0 0.0
  outer loop
    vertex 46.50000000000001 6.0 14.999999999999998
    vertex 46.50000000000001 1.4999999999999998 1.9999999999999998
    vertex 46.50000000000001 1.4999999999999998 14.999999999999998
  endloop
endfacet
facet normal -1.0 0.0 0.0
  outer loop
    vertex 46.50000000000001 1.4999999999999998 1.9999999999999998
    vertex 46.50000000000001 6.0 14.999999999999998
    vertex 46.50000000000001 7.0 12.999999999999998
  endloop
endfacet
facet normal -1.0 0.0 0.0
  outer loop
    vertex 46.50000000000001 1.4999999999999998 1.9999999999999998
    vertex 46.50000000000001 7.0 12.999999999999998
    vertex 46.50000000000001 14.499999999999998 1.9999999999999998
  endloop
endfacet
facet normal -1.0 0.0 0.0
  outer loop
    vertex 46.50000000000001 14.499999999999998 1.9999999999999998
    vertex 46.50000000000001 7.0 12.999999999999998
    vertex 46.50000000000001 8.999999999999998 12.999999999999998
  endloop
endfacet
facet normal -1.0 0.0 0.0
  outer loop
    vertex 46.50000000000001 14.499999999999998 1.9999999999999998
    vertex 46.50000000000001 8.999999999999998 12.999999999999998
    vertex 46.50000000000001 9.999999999999998 14.999999999999998
  endloop
endfacet
facet normal -1.0 0.0 0.0
  outer loop
    vertex 46.50000000000001 14.499999999999998 1.9999999999999998
    vertex 46.50000000000001 9.999999999999998 14.999999999999998
    vertex 46.50000000000001 14.499999999999998 14.999999999999998
  endloop
endfacet
facet normal 0.0 -1.0 0.0
  outer loop
    vertex 46.50000000000001 14.499999999999998 14.999999999999998
    vertex 1.5 14.499999999999998 1.9999999999999998
    vertex 46.50000000000001 14.499999999999998 1.9999999999999998
  endloop
endfacet
facet normal 0.0 -1.0 0.0
  outer loop
    vertex 1.5 14.499999999999998 1.9999999999999998
    vertex 46.50000000000001 14.499999999999998 14.999999999999998
    vertex 1.5 14.499999999999998 14.999999999999998
  endloop
endfacet
facet normal 1.0 -2.7115062332191325e-17 0.0
  outer loop
    vertex 1.5 14.499999999999998 1.9999999999999998
    vertex 1.4999999999999998 1.5 14.999999999999998
    vertex 1.4999999999999998 1.5 1.9999999999999998
  endloop
endfacet
facet normal 1.0 -2.7115062332191325e-17 0.0
  outer loop
    vertex 1.4999999999999998 1.5 14.999999999999998
    vertex 1.5 14.499999999999998 1.9999999999999998
    vertex 1.5 14.499999999999998 14.999999999999998
  endloop
endfacet
facet normal 7.833240229299714e-18 1.0 0.0
  outer loop
    vertex 1.4999999999999998 1.5 14.999999999999998
    vertex 46.50000000000001 1.4999999999999998 1.9999999999999998
    vertex 1.4999999999999998 1.5 1.9999999999999998
  endloop
endfacet
facet normal 7.833240229299714e-18 1.0 0.0
  outer loop
    vertex 46.50000000000001 1.4999999999999998 1.9999999999999998
    vertex 1.4999999999999998 1.5 14.999999999999998
    vertex 46.50000000000001 1.4999999999999998 14.999999999999998
  endloop
endfacet
facet normal 0.0 0.0 1.0
  outer loop
    vertex 1.4999999999999998 1.5 1.9999999999999998
    vertex 9.525126265847083 5.525126265847085 1.9999999999999998
    vertex 1.5 14.499999999999998 1.9999999999999998
  endloop
endfacet
facet normal 0.0 0.0 1.0
  outer loop
    vertex 9.525126265847083 5.525126265847085 1.9999999999999998
    vertex 1.4999999999999998 1.5 1.9999999999999998
    vertex 10.25 4.968911086754466 1.9999999999999998
  endloop
endfacet
facet normal 0.0 0.0 1.0
  outer loop
    vertex 10.25 4.968911086754466 1.9999999999999998
    vertex 1.4999999999999998 1.5 1.9999999999999998
    vertex 11.094133342141175 4.619259607988262 1.9999999999999998
  endloop
endfacet
facet normal 0.0 0.0 1.0
  outer loop
    vertex 11.094133342141175 4.619259607988262 1.9999999999999998
    vertex 1.4999999999999998 1.5 1.9999999999999998
    vertex 12.0 4.5 1.9999999999999998
  endloop
endfacet
facet normal 0.0 0.0 1.0
  outer loop
    vertex 12.0 4.5 1.9999999999999998
    vertex 1.4999999999999998 1.5 1.9999999999999998
    vertex 46.50000000000001 1.4999999999999998 1.9999999999999998
  endloop
endfacet
facet normal 0.0 0.0 1.0
  outer loop
    vertex 1.5 14.499999999999998 1.9999999999999998
    vertex 9.525126265847083 5.525126265847085 1.9999999999999998
    vertex 8.968911086754465 6.250000000000001 1.9999999999999998
  endloop
endfacet
facet normal 0.0 0.0 1.0
  outer loop
    vertex 1.5 14.499999999999998 1.9999999999999998
    vertex 8.968911086754465 6.250000000000001 1.9999999999999998
    vertex 8.619259607988262 7.094133342141178 1.9999999999999998
  endloop
endfacet
facet normal 0.0 0.0 1.0
  outer loop
    vertex 1.5 14.499999999999998 1.9999999999999998
    vertex 8.619259607988262 7.094133342141178 1.9999999999999998
    vertex 8.500000000000002 7.999999999999999 1.9999999999999998
  endloop
endfacet
facet normal 0.0 0.0 1.0
  outer loop
    vertex 12.0 4.5 1.9999999999999998
    vertex 46.50000000000001 1.4999999999999998 1.9999999999999998
    vertex 12.905866657858821 4.619259607988261 1.9999999999999998
  endloop
endfacet
facet normal 0.0 0.0 1.0
  outer loop
    vertex 12.905866657858821 4.619259607988261 1.9999999999999998
    vertex 46.50000000000001 1.4999999999999998 1.9999999999999998
    vertex 13.749999999999998 4.9689110867544635 1.9999999999999998
  endloop
endfacet
facet normal 0.0 0.0 1.0
  outer loop
    vertex 13.749999999999998 4.9689110867544635 1.9999999999999998
    vertex 46.50000000000001 1.4999999999999998 1.9999999999999998
    vertex 14.474873734152915 5.525126265847082 1.9999999999999998
  endloop
endfacet
facet normal 0.0 0.0 1.0
  outer loop
    vertex 14.474873734152915 5.525126265847082 1.9999999999999998
    vertex 46.50000000000001 1.4999999999999998 1.9999999999999998
    vertex 15.031088913245535 6.249999999999998 1.9999999999999998
  endloop
endfacet
facet normal 0.0 0.0 1.0
  outer loop
    vertex 15.031088913245535 6.249999999999998 1.9999999999999998
    vertex 46.50000000000001 1.4999999999999998 1.9999999999999998
    vertex 15.380740392011738 7.094133342141174 1.9999999999999998
  endloop
endfacet
facet normal 0.0 0.0 1.0
  outer loop
    vertex 15.380740392011738 7.094133342141174 1.9999999999999998
    vertex 46.50000000000001 1.4999999999999998 1.9999999999999998
    vertex 15.5 7.999999999999999 1.9999999999999998
  endloop
endfacet
facet normal 0.0 0.0 1.0
  outer loop
    vertex 15.5 7.999999999999999 1.9999999999999998
    vertex 46.50000000000001 1.4999999999999998 1.9999999999999998
    vertex 35.09413334214118 4.619259607988262 1.9999999999999998
  endloop
endfacet
facet normal 0.0 0.0 1.0
  outer loop
    vertex 15.5 7.999999999999999 1.9999999999999998
    vertex 35.09413334214118 4.619259607988262 1.9999999999999998
    vertex 34.25 4.968911086754466 1.9999999999999998
  endloop
endfacet
facet normal 0.0 0.0 1.0
  outer loop
    vertex 15.5 7.999999999999999 1.9999999999999998
    vertex 34.25 4.968911086754466 1.9999999999999998
    vertex 33.525126265847085 5.525126265847085 1.9999999999999998
  endloop
endfacet
facet normal 0.0 0.0 1.0
  outer loop
    vertex 15.5 7.999999999999999 1.9999999999999998
    vertex 33.525126265847085 5.525126265847085 1.9999999999999998
    vertex 32.96891108675447 6.250000000000001 1.9999999999999998
  endloop
endfacet
facet normal 0.0 0.0 1.0
  outer loop
    vertex 15.5 7.999999999999999 1.9999999999999998
    vertex 32.96891108675447 6.250000000000001 1.9999999999999998
    vertex 32.61925960798826 7.094133342141178 1.9999999999999998
  endloop
endfacet
facet normal 0.0 0.0 1.0
  outer loop
    vertex 15.5 7.999999999999999 1.9999999999999998
    vertex 32.61925960798826 7.094133342141178 1.9999999999999998
    vertex 32.5 7.999999999999999 1.9999999999999998
  endloop
endfacet
facet normal 0.0 0.0 1.0
  outer loop
    vertex 35.09413334214118 4.619259607988262 1.9999999999999998
    vertex 46.50000000000001 1.4999999999999998 1.9999999999999998
    vertex 36.0 4.5 1.9999999999999998
  endloop
endfacet
facet normal 0.0 0.0 1.0
  outer loop
    vertex 36.0 4.5 1.9999999999999998
    vertex 46.50000000000001 1.4999999999999998 1.9999999999999998
    vertex 36.90586665785882 4.619259607988261 1.9999999999999998
  endloop
endfacet
facet normal 0.0 0.0 1.0
  outer loop
    vertex 36.90586665785882 4.619259607988261 1.9999999999999998
    vertex 46.50000000000001 1.4999999999999998 1.9999999999999998
    vertex 37.75 4.9689110867544635 1.9999999999999998
  endloop
endfacet
facet normal 0.0 0.0 1.0
  outer loop
    vertex 37.75 4.9689110867544635 1.9999999999999998
    vertex 46.50000000000001 1.4999999999999998 1.9999999999999998
    vertex 38.47487373415292 5.525126265847082 1.9999999999999998
  endloop
endfacet
facet normal 0.0 0.0 1.0
  outer loop
    vertex 38.47487373415292 5.525126265847082 1.9999999999999998
    vertex 46.50000000000001 1.4999999999999998 1.9999999999999998
    vertex 39.03108891324553 6.249999999999998 1.9999999999999998
  endloop
endfacet
facet normal 0.0 0.0 1.0
  outer loop
    vertex 39.03108891324553 6.249999999999998 1.9999999999999998
    vertex 46.50000000000001 1.4999999999999998 1.9999999999999998
    vertex 39.38074039201174 7.094133342141174 1.9999999999999998
  endloop
endfacet
facet normal 0.0 0.0 1.0
  outer loop
    vertex 39.38074039201174 7.094133342141174 1.9999999999999998
    vertex 46.50000000000001 1.4999999999999998 1.9999999999999998
    vertex 39.5 7.999999999999999 1.9999999999999998
  endloop
endfacet
facet normal 0.0 0.0 1.0
  outer loop
    vertex 1.5 14.499999999999998 1.9999999999999998
    vertex 12.0 11.499999999999998 1.9999999999999998
    vertex 46.50000000000001 14.499999999999998 1.9999999999999998
  endloop
endfacet
facet normal 0.0 0.0 1.0
  outer loop
    vertex 12.0 11.499999999999998 1.9999999999999998
    vertex 1.5 14.499999999999998 1.9999999999999998
    vertex 11.094133342141179 11.380740392011738 1.9999999999999998
  endloop
endfacet
facet normal 0.0 0.0 1.0
  outer loop
    vertex 11.094133342141179 11.380740392011738 1.9999999999999998
    vertex 1.5 14.499999999999998 1.9999999999999998
    vertex 10.250000000000002 11.031088913245533 1.9999999999999998
  endloop
endfacet
facet normal 0.0 0.0 1.0
  outer loop
    vertex 10.250000000000002 11.031088913245533 1.9999999999999998
    vertex 1.5 14.499999999999998 1.9999999999999998
    vertex 9.525126265847085 10.474873734152915 1.9999999999999998
  endloop
endfacet
facet normal 0.0 0.0 1.0
  outer loop
    vertex 9.525126265847085 10.474873734152915 1.9999999999999998
    vertex 1.5 14.499999999999998 1.9999999999999998
    vertex 8.968911086754467 9.75 1.9999999999999998
  endloop
endfacet
facet normal 0.0 0.0 1.0
  outer loop
    vertex 8.968911086754467 9.75 1.9999999999999998
    vertex 1.5 14.499999999999998 1.9999999999999998
    vertex 8.619259607988262 8.905866657858823 1.9999999999999998
  endloop
endfacet
facet normal 0.0 0.0 1.0
  outer loop
    vertex 8.619259607988262 8.905866657858823 1.9999999999999998
    vertex 1.5 14.499999999999998 1.9999999999999998
    vertex 8.500000000000002 7.999999999999999 1.9999999999999998
  endloop
endfacet
facet normal 0.0 0.0 1.0
  outer loop
    vertex 46.50000000000001 14.499999999999998 1.9999999999999998
    vertex 12.0 11.499999999999998 1.9999999999999998
    vertex 12.905866657858825 11.380740392011738 1.9999999999999998
  endloop
endfacet
facet normal 0.0 0.0 1.0
  outer loop
    vertex 46.50000000000001 14.499999999999998 1.9999999999999998
    vertex 12.905866657858825 11.380740392011738 1.9999999999999998
    vertex 13.75 11.031088913245533 1.9999999999999998
  endloop
endfacet
facet normal 0.0 0.0 1.0
  outer loop
    vertex 46.50000000000001 14.499999999999998 1.9999999999999998
    vertex 13.75 11.031088913245533 1.9999999999999998
    vertex 14.474873734152917 10.474873734152915 1.9999999999999998
  endloop
endfacet
facet normal 0.0 0.0 1.0
  outer loop
    vertex 46.50000000000001 14.499999999999998 1.9999999999999998
    vertex 14.474873734152917 10.474873734152915 1.9999999999999998
    vertex 15.031088913245535 9.749999999999998 1.9999999999999998
  endloop
endfacet
facet normal 0.0 0.0 1.0
  outer loop
    vertex 46.50000000000001 14.499999999999998 1.9999999999999998
    vertex 15.031088913245535 9.749999999999998 1.9999999999999998
    vertex 15.380740392011738 8.905866657858821 1.9999999999999998
  endloop
endfacet
facet normal 0.0 0.0 1.0
  outer loop
    vertex 46.50000000000001 14.499999999999998 1.9999999999999998
    vertex 15.380740392011738 8.905866657858821 1.9999999999999998
    vertex 15.5 7.999999999999999 1.9999999999999998
  endloop
endfacet
facet normal 0.0 0.0 1.0
  outer loop
    vertex 46.50000000000001 14.499999999999998 1.9999999999999998
    vertex 15.5 7.999999999999999 1.9999999999999998
    vertex 35.09413334214118 11.380740392011738 1.9999999999999998
  endloop
endfacet
facet normal 0.0 0.0 1.0
  outer loop
    vertex 35.09413334214118 11.380740392011738 1.9999999999999998
    vertex 15.5 7.999999999999999 1.9999999999999998
    vertex 34.25000000000001 11.031088913245533 1.9999999999999998
  endloop
endfacet
facet normal 0.0 0.0 1.0
  outer loop
    vertex 34.25000000000001 11.031088913245533 1.9999999999999998
    vertex 15.5 7.999999999999999 1.9999999999999998
    vertex 33.525126265847085 10.474873734152915 1.9999999999999998
  endloop
endfacet
facet normal 0.0 0.0 1.0
  outer loop
    vertex 33.525126265847085 10.474873734152915 1.9999999999999998
    vertex 15.5 7.999999999999999 1.9999999999999998
    vertex 32.96891108675447 9.75 1.9999999999999998
  endloop
endfacet
facet normal 0.0 0.0 1.0
  outer loop
    vertex 32.96891108675447 9.75 1.9999999999999998
    vertex 15.5 7.999999999999999 1.9999999999999998
    vertex 32.61925960798827 8.905866657858823 1.9999999999999998
  endloop
endfacet
facet normal 0.0 0.0 1.0
  outer loop
    vertex 32.61925960798827 8.905866657858823 1.9999999999999998
    vertex 15.5 7.999999999999999 1.9999999999999998
    vertex 32.5 7.999999999999999 1.9999999999999998
  endloop
endfacet
facet normal 0.0 0.0 1.0
  outer loop
    vertex 46.50000000000001 14.499999999999998 1.9999999999999998
    vertex 35.09413334214118 11.380740392011738 1.9999999999999998
    vertex 36.0 11.499999999999998 1.9999999999999998
  endloop
endfacet
facet normal 0.0 0.0 1.0
  outer loop
    vertex 46.50000000000001 14.499999999999998 1.9999999999999998
    vertex 36.0 11.499999999999998 1.9999999999999998
    vertex 36.90586665785882 11.380740392011738 1.9999999999999998
  endloop
endfacet
facet normal 0.0 0.0 1.0
  outer loop
    vertex 46.50000000000001 14.499999999999998 1.9999999999999998
    vertex 36.90586665785882 11.380740392011738 1.9999999999999998
    vertex 37.75000000000001 11.031088913245533 1.9999999999999998
  endloop
endfacet
facet normal 0.0 0.0 1.0
  outer loop
    vertex 46.50000000000001 14.499999999999998 1.9999999999999998
    vertex 37.75000000000001 11.031088913245533 1.9999999999999998
    vertex 38.47487373415292 10.474873734152915 1.9999999999999998
  endloop
endfacet
facet normal 0.0 0.0 1.0
  outer loop
    vertex 46.50000000000001 14.499999999999998 1.9999999999999998
    vertex 38.47487373415292 10.474873734152915 1.9999999999999998
    vertex 39.03108891324553 9.749999999999998 1.9999999999999998
  endloop
endfacet
facet normal 0.0 0.0 1.0
  outer loop
    vertex 46.50000000000001 14.499999999999998 1.9999999999999998
    vertex 39.03108891324553 9.749999999999998 1.9999999999999998
    vertex 39.38074039201174 8.905866657858821 1.9999999999999998
  endloop
endfacet
facet normal 0.0 0.0 1.0
  outer loop
    vertex 46.50000000000001 14.499999999999998 1.9999999999999998
    vertex 39.38074039201174 8.905866657858821 1.9999999999999998
    vertex 39.5 7.999999999999999 1.9999999999999998
  endloop
endfacet
facet normal 0.0 0.0 1.0
  outer loop
    vertex 46.50000000000001 14.499999999999998 1.9999999999999998
    vertex 39.5 7.999999999999999 1.9999999999999998
    vertex 46.50000000000001 1.4999999999999998 1.9999999999999998
  endloop
endfacet
facet normal -0.0 -0.0 1.0
  outer loop
    vertex 0.0 0.0 14.999999999999998
    vertex 1.4999999999999998 1.5 14.999999999999998
    vertex 0.0 15.999999999999998 14.999999999999998
  endloop
endfacet
facet normal -0.0 -0.0 1.0
  outer loop
    vertex 1.4999999999999998 1.5 14.999999999999998
    vertex 0.0 0.0 14.999999999999998
    vertex 48.0 0.0 14.999999999999998
  endloop
endfacet
facet normal -0.0 -0.0 1.0
  outer loop
    vertex 1.4999999999999998 1.5 14.999999999999998
    vertex 48.0 0.0 14.999999999999998
    vertex 46.50000000000001 1.4999999999999998 14.999999999999998
  endloop
endfacet
facet normal -0.0 -0.0 1.0
  outer loop
    vertex 46.50000000000001 1.4999999999999998 14.999999999999998
    vertex 48.0 0.0 14.999999999999998
    vertex 46.50000000000001 6.0 14.999999999999998
  endloop
endfacet
facet normal -0.0 -0.0 1.0
  outer loop
    vertex 46.50000000000001 6.0 14.999999999999998
    vertex 48.0 0.0 14.999999999999998
    vertex 48.0 6.0 14.999999999999998
  endloop
endfacet
facet normal -0.0 -0.0 1.0
  outer loop
    vertex 48.0 9.999999999999998 14.999999999999998
    vertex 46.50000000000001 14.499999999999998 14.999999999999998
    vertex 46.50000000000001 9.999999999999998 14.999999999999998
  endloop
endfacet
facet normal -0.0 -0.0 1.0
  outer loop
    vertex 0.0 15.999999999999998 14.999999999999998
    vertex 1.5 14.499999999999998 14.999999999999998
    vertex 48.0 15.999999999999998 14.999999999999998
  endloop
endfacet
facet normal -0.0 -0.0 1.0
  outer loop
    vertex 1.5 14.499999999999998 14.999999999999998
    vertex 0.0 15.999999999999998 14.999999999999998
    vertex 1.4999999999999998 1.5 14.999999999999998
  endloop
endfacet
facet normal -0.0 -0.0 1.0
  outer loop
    vertex 48.0 15.999999999999998 14.999999999999998
    vertex 1.5 14.499999999999998 14.999999999999998
    vertex 46.50000000000001 14.499999999999998 14.999999999999998
  endloop
endfacet
facet normal -0.0 -0.0 1.0
  outer loop
    vertex 48.0 15.999999999999998 14.999999999999998
    vertex 46.50000000000001 14.499999999999998 14.999999999999998
    vertex 48.0 9.999999999999998 14.999999999999998
  endloop
endfacet
facet normal 0.0 -0.8944271909999159 0.4472135954999579
  outer loop
    vertex 48.0 9.999999999999998 14.999999999999998
    vertex 46.50000000000001 8.999999999999998 12.999999999999998
    vertex 48.0 8.999999999999998 12.999999999999998
  endloop
endfacet
facet normal 0.0 -0.8944271909999159 0.4472135954999579
  outer loop
    vertex 46.50000000000001 8.999999999999998 12.999999999999998
    vertex 48.0 9.999999999999998 14.999999999999998
    vertex 46.50000000000001 9.999999999999998 14.999999999999998
  endloop
endfacet
facet normal 1.0 -0.0 -0.0
  outer loop
    vertex 48.0 15.999999999999998 0.0
    vertex 48.0 0.0 14.999999999999998
    vertex 48.0 0.0 0.0
  endloop
endfacet
facet normal 1.0 -0.0 -0.0
  outer loop
    vertex 48.0 0.0 14.999999999999998
    vertex 48.0 15.999999999999998 0.0
    vertex 48.0 7.0 12.999999999999998
  endloop
endfacet
facet normal 1.0 -0.0 -0.0
  outer loop
    vertex 48.0 0.0 14.999999999999998
    vertex 48.0 7.0 12.999999999999998
    vertex 48.0 6.0 14.999999999999998
  endloop
endfacet
facet normal 1.0 -0.0 -0.0
  outer loop
    vertex 48.0 7.0 12.999999999999998
    vertex 48.0 15.999999999999998 0.0
    vertex 48.0 8.999999999999998 12.999999999999998
  endloop
endfacet
facet normal 1.0 -0.0 -0.0
  outer loop
    vertex 48.0 8.999999999999998 12.999999999999998
    vertex 48.0 15.999999999999998 0.0
    vertex 48.0 9.999999999999998 14.999999999999998
  endloop
endfacet
facet normal 1.0 -0.0 -0.0
  outer loop
    vertex 48.0 9.999999999999998 14.999999999999998
    vertex 48.0 15.999999999999998 0.0
    vertex 48.0 15.999999999999998 14.999999999999998
  endloop
endfacet
facet normal -0.0 0.8944271909999159 0.4472135954999579
  outer loop
    vertex 46.50000000000001 6.0 14.999999999999998
    vertex 48.0 7.0 12.999999999999998
    vertex 46.50000000000001 7.0 12.999999999999998
  endloop
endfacet
facet normal -0.0 0.8944271909999159 0.4472135954999579
  outer loop
    vertex 48.0 7.0 12.999999999999998
    vertex 46.50000000000001 6.0 14.999999999999998
    vertex 48.0 6.0 14.999999999999998
  endloop
endfacet
facet normal -0.0 -0.0 1.0
  outer loop
    vertex 48.0 7.0 12.999999999999998
    vertex 46.50000000000001 8.999999999999998 12.999999999999998
    vertex 46.50000000000001 7.0 12.999999999999998
  endloop
endfacet
facet normal -0.0 -0.0 1.0
  outer loop
    vertex 46.50000000000001 8.999999999999998 12.999999999999998
    vertex 48.0 7.0 12.999999999999998
    vertex 48.0 8.999999999999998 12.999999999999998
  endloop
endfacet
endsolid Kocka_2xpot
