solid Useless_Box
facet normal -2.8458832512814064e-13 -1.0 -2.358819022457739e-13
  outer loop
    vertex 4.000000000011167 41.50000000001373 -28.389202061135695
    vertex 62.50000000003066 41.499999999992994 -9.38920206119562
    vertex 4.000000000030631 41.50000000000964 -9.389202061135698
  endloop
endfacet
facet normal -2.8458832512814064e-13 -1.0 -2.358819022457739e-13
  outer loop
    vertex 62.50000000003066 41.499999999992994 -9.38920206119562
    vertex 4.000000000011167 41.50000000001373 -28.389202061135695
    vertex 62.50000000001674 41.49999999999703 -22.38920206119561
  endloop
endfacet
facet normal -2.8458832512814064e-13 -1.0 -2.358819022457739e-13
  outer loop
    vertex 62.50000000001674 41.49999999999703 -22.38920206119561
    vertex 4.000000000011167 41.50000000001373 -28.389202061135695
    vertex 62.5000000000112 41.49999999999707 -28.389202061195615
  endloop
endfacet
facet normal -0.9986234492453702 -0.05245194579116897 1.0103853503516263e-12
  outer loop
    vertex 4.000000000002914 12.500000000013715 -28.38920206113696
    vertex 4.000000000022663 13.500000000009637 -9.3892020611365
    vertex 4.000000000003199 13.500000000013726 -28.3892020611365
  endloop
endfacet
facet normal -1.0 2.8458832512789906e-13 1.024182141590466e-12
  outer loop
    vertex 4.000000000011167 41.50000000001373 -28.389202061135695
    vertex 4.000000000032959 42.50000000000912 -7.389202061135339
    vertex 4.000000000011454 42.50000000001371 -28.389202061135236
  endloop
endfacet
facet normal -0.9986234492453407 0.05245194579173076 1.0351416189442221e-12
  outer loop
    vertex 4.000000000032959 42.50000000000912 -7.389202061135339
    vertex 4.000000000011167 41.50000000001373 -28.389202061135695
    vertex 4.000000000030631 41.50000000000964 -9.389202061135698
  endloop
endfacet
facet normal -0.9986234492453407 0.05245194579173076 1.0351416189442221e-12
  outer loop
    vertex 4.000000000032959 42.50000000000912 -7.389202061135339
    vertex 4.000000000030631 41.50000000000964 -9.389202061135698
    vertex 4.000000000024422 12.500000000009114 -7.389202061136957
  endloop
endfacet
facet normal -0.9986234492453699 -0.0524519457911729 1.0103853503516253e-12
  outer loop
    vertex 4.000000000024422 12.500000000009114 -7.389202061136957
    vertex 4.000000000030631 41.50000000000964 -9.389202061135698
    vertex 4.000000000022663 13.500000000009637 -9.3892020611365
  endloop
endfacet
facet normal -0.9986234492453699 -0.0524519457911729 1.0103853503516253e-12
  outer loop
    vertex 4.000000000024422 12.500000000009114 -7.389202061136957
    vertex 4.000000000022663 13.500000000009637 -9.3892020611365
    vertex 4.000000000002914 12.500000000013715 -28.38920206113696
  endloop
endfacet
facet normal -0.9986234492453405 0.05245194579173462 1.0351416189442228e-12
  outer loop
    vertex 4.000000000011454 42.50000000001371 -28.389202061135236
    vertex 4.021900000033022 42.70790000000911 -7.3892020611353475
    vertex 4.021900000011514 42.7079000000137 -28.38920206113525
  endloop
endfacet
facet normal -0.9781206227253088 0.20803857190303493 1.0508337196190407e-12
  outer loop
    vertex 4.021900000033022 42.70790000000911 -7.3892020611353475
    vertex 4.000000000011454 42.50000000001371 -28.389202061135236
    vertex 4.000000000032959 42.50000000000912 -7.389202061135339
  endloop
endfacet
facet normal -0.9781206227253043 0.2080385719030557 1.050833719619041e-12
  outer loop
    vertex 4.021900000011514 42.7079000000137 -28.38920206113525
    vertex 4.0865000000330785 42.906700000009096 -7.3892020611354035
    vertex 4.08650000001157 42.906700000013686 -28.389202061135308
  endloop
endfacet
facet normal -0.9135889019441406 0.40663905154879004 1.0315758205458727e-12
  outer loop
    vertex 4.0865000000330785 42.906700000009096 -7.3892020611354035
    vertex 4.021900000011514 42.7079000000137 -28.38920206113525
    vertex 4.021900000033022 42.70790000000911 -7.3892020611353475
  endloop
endfacet
facet normal -0.9135889019441326 0.4066390515488083 1.031575820545869e-12
  outer loop
    vertex 4.08650000001157 42.906700000013686 -28.389202061135308
    vertex 4.191000000033135 43.087800000009054 -7.389202061135499
    vertex 4.191000000011627 43.087800000013644 -28.389202061135403
  endloop
endfacet
facet normal -0.8090174887816597 0.5877845717994113 9.67193722378388e-13
  outer loop
    vertex 4.191000000033135 43.087800000009054 -7.389202061135499
    vertex 4.08650000001157 42.906700000013686 -28.389202061135308
    vertex 4.0865000000330785 42.906700000009096 -7.3892020611354035
  endloop
endfacet
facet normal -0.8090174887816497 0.5877845717994252 9.67193722378381e-13
  outer loop
    vertex 4.191000000011627 43.087800000013644 -28.389202061135403
    vertex 4.330900000033165 43.24310000000903 -7.389202061135634
    vertex 4.330900000011657 43.24310000001362 -28.38920206113554
  endloop
endfacet
facet normal -0.6691016671292956 0.7431708814564774 8.605379269635927e-13
  outer loop
    vertex 4.330900000033165 43.24310000000903 -7.389202061135634
    vertex 4.191000000011627 43.087800000013644 -28.389202061135403
    vertex 4.191000000033135 43.087800000009054 -7.389202061135499
  endloop
endfacet
facet normal -0.5001858071242181 0.8659181014111522 7.164837989241064e-13
  outer loop
    vertex 4.500000000011697 43.36600000001357 -28.389202061135702
    vertex 4.330900000033165 43.24310000000903 -7.389202061135634
    vertex 4.500000000033205 43.36600000000898 -7.389202061135807
  endloop
endfacet
facet normal -0.6691016671292956 0.7431708814564774 8.605379269635927e-13
  outer loop
    vertex 4.330900000033165 43.24310000000903 -7.389202061135634
    vertex 4.500000000011697 43.36600000001357 -28.389202061135702
    vertex 4.330900000011657 43.24310000001362 -28.38920206113554
  endloop
endfacet
facet normal -0.3089935025279199 0.9510641489381926 5.430484324232183e-13
  outer loop
    vertex 4.691000000011729 43.45110000001352 -28.389202061135894
    vertex 4.500000000033205 43.36600000000898 -7.389202061135807
    vertex 4.691000000033237 43.45110000000893 -7.389202061135993
  endloop
endfacet
facet normal -0.5001858071242278 0.8659181014111468 7.164837989241149e-13
  outer loop
    vertex 4.500000000033205 43.36600000000898 -7.389202061135807
    vertex 4.691000000011729 43.45110000001352 -28.389202061135894
    vertex 4.500000000011697 43.36600000001357 -28.389202061135702
  endloop
endfacet
facet normal -0.17547553301528454 0.9844837923058978 3.9304555580239137e-13
  outer loop
    vertex 4.895500000016242 43.49450000001294 -23.989202061136098
    vertex 4.691000000033237 43.45110000000893 -7.389202061135993
    vertex 4.895500000033246 43.49450000000887 -7.389202061136196
  endloop
endfacet
facet normal -0.3089935025279251 0.9510641489381909 5.430484324232231e-13
  outer loop
    vertex 4.691000000033237 43.45110000000893 -7.389202061135993
    vertex 4.895500000016242 43.49450000001294 -23.989202061136098
    vertex 4.691000000011729 43.45110000001352 -28.389202061135894
  endloop
endfacet
facet normal -0.3089935025279199 0.9510641489381926 5.430484324232183e-13
  outer loop
    vertex 4.691000000011729 43.45110000001352 -28.389202061135894
    vertex 4.895500000016242 43.49450000001294 -23.989202061136098
    vertex 4.8955000000117375 43.49450000001346 -28.3892020611361
  endloop
endfacet
facet normal 2.8458832512801983e-13 1.0 1.1792587108807512e-13
  outer loop
    vertex 63.60450000001177 43.494499999996734 -28.38920206119623
    vertex 4.895500000016242 43.49450000001294 -23.989202061136098
    vertex 63.60450000001628 43.494499999996215 -23.989202061196227
  endloop
endfacet
facet normal -0.17547553301528454 0.9844837923058978 3.9304555580239137e-13
  outer loop
    vertex 4.895500000016242 43.49450000001294 -23.989202061136098
    vertex 63.60450000001177 43.494499999996734 -28.38920206119623
    vertex 4.8955000000117375 43.49450000001346 -28.3892020611361
  endloop
endfacet
facet normal 2.864315899035561e-13 1.0 2.1968848042806164e-13
  outer loop
    vertex 62.50000000002266 13.499999999992987 -9.389202061196421
    vertex 4.000000000003199 13.500000000013726 -28.3892020611365
    vertex 4.000000000022663 13.500000000009637 -9.3892020611365
  endloop
endfacet
facet normal 2.864315899035561e-13 1.0 2.1968848042806164e-13
  outer loop
    vertex 4.000000000003199 13.500000000013726 -28.3892020611365
    vertex 62.50000000002266 13.499999999992987 -9.389202061196421
    vertex 62.50000000002062 13.499999999993054 -11.38920206119642
  endloop
endfacet
facet normal 2.864315899035561e-13 1.0 2.1968848042806164e-13
  outer loop
    vertex 4.000000000003199 13.500000000013726 -28.3892020611365
    vertex 62.50000000002062 13.499999999993054 -11.38920206119642
    vertex 62.50000000000989 13.49999999999706 -22.389202061196414
  endloop
endfacet
facet normal 2.864315899035561e-13 1.0 2.1968848042806164e-13
  outer loop
    vertex 4.000000000003199 13.500000000013726 -28.3892020611365
    vertex 62.50000000000989 13.49999999999706 -22.389202061196414
    vertex 62.500000000003205 13.49999999999707 -28.389202061196414
  endloop
endfacet
facet normal 0.9986282428609383 -0.05236060118361834 -2.04083927854565e-06
  outer loop
    vertex 64.50000000002444 12.499999999991894 -7.389202061198921
    vertex 64.47810000000288 12.292099999996505 -28.38920206119891
    vertex 64.50000000000294 12.499999999996497 -28.38920206119892
  endloop
endfacet
facet normal 0.9781206227253102 -0.20803857190302855 -1.0500765546529838e-12
  outer loop
    vertex 64.47810000000288 12.292099999996505 -28.38920206119891
    vertex 64.50000000002444 12.499999999991894 -7.389202061198921
    vertex 64.47810000002438 12.292099999991903 -7.389202061198912
  endloop
endfacet
facet normal 0.9781206227253061 -0.20803857190304778 -1.0500765546529846e-12
  outer loop
    vertex 64.47810000002438 12.292099999991903 -7.389202061198912
    vertex 64.41350000000283 12.093299999996526 -28.389202061198855
    vertex 64.47810000000288 12.292099999996505 -28.38920206119891
  endloop
endfacet
facet normal 0.9135889019441406 -0.40663905154879043 -1.0317125491941574e-12
  outer loop
    vertex 64.41350000000283 12.093299999996526 -28.389202061198855
    vertex 64.47810000002438 12.292099999991903 -7.389202061198912
    vertex 64.41350000002434 12.093299999991924 -7.389202061198864
  endloop
endfacet
facet normal 0.913588901944133 -0.4066390515488073 -1.0317125491941537e-12
  outer loop
    vertex 64.41350000002434 12.093299999991924 -7.389202061198864
    vertex 64.30900000000274 11.912199999996552 -28.38920206119876
    vertex 64.41350000000283 12.093299999996526 -28.389202061198855
  endloop
endfacet
facet normal 0.8090174887816597 -0.5877845717994112 -9.673913595450069e-13
  outer loop
    vertex 64.30900000000274 11.912199999996552 -28.38920206119876
    vertex 64.41350000002434 12.093299999991924 -7.389202061198864
    vertex 64.30900000002426 11.91219999999195 -7.389202061198768
  endloop
endfacet
facet normal 0.8090174887816489 -0.587784571799426 -9.673913595449994e-13
  outer loop
    vertex 64.30900000002426 11.91219999999195 -7.389202061198768
    vertex 64.16910000000271 11.756899999996591 -28.389202061198624
    vertex 64.30900000000274 11.912199999996552 -28.38920206119876
  endloop
endfacet
facet normal 0.6691016671292951 -0.7431708814564778 -8.607878113504437e-13
  outer loop
    vertex 64.16910000000271 11.756899999996591 -28.389202061198624
    vertex 64.30900000002426 11.91219999999195 -7.389202061198768
    vertex 64.16910000002422 11.756899999991989 -7.3892020611986275
  endloop
endfacet
facet normal 0.5001858071242076 -0.8659181014111583 -7.167749559368831e-13
  outer loop
    vertex 64.00000000002417 11.63399999999203 -7.389202061198458
    vertex 64.16910000000271 11.756899999996591 -28.389202061198624
    vertex 64.16910000002422 11.756899999991989 -7.3892020611986275
  endloop
endfacet
facet normal 0.6691016671292951 -0.7431708814564778 -8.607878113504437e-13
  outer loop
    vertex 64.16910000000271 11.756899999996591 -28.389202061198624
    vertex 64.00000000002417 11.63399999999203 -7.389202061198458
    vertex 64.00000000000267 11.633999999996632 -28.389202061198457
  endloop
endfacet
facet normal 0.3089935025275584 -0.9510641489383099 -5.411372736504685e-13
  outer loop
    vertex 63.80900000002417 11.548899999992095 -7.389202061198269
    vertex 64.00000000000267 11.633999999996632 -28.389202061198457
    vertex 64.00000000002417 11.63399999999203 -7.389202061198458
  endloop
endfacet
facet normal 0.5001858071242172 -0.8659181014111529 -7.167749559368918e-13
  outer loop
    vertex 64.00000000000267 11.633999999996632 -28.389202061198457
    vertex 63.80900000002417 11.548899999992095 -7.389202061198269
    vertex 63.80900000000266 11.548899999996697 -28.389202061198265
  endloop
endfacet
facet normal 0.2448916123443227 -0.9695504619169638 -4.819332238717974e-13
  outer loop
    vertex 63.604500000024174 11.505499999992143 -7.389202061198069
    vertex 63.80900000000266 11.548899999996697 -28.389202061198265
    vertex 63.80900000002417 11.548899999992095 -7.389202061198269
  endloop
endfacet
facet normal 0.3089935025275638 -0.9510641489383082 -5.411372736504736e-13
  outer loop
    vertex 63.80900000000266 11.548899999996697 -28.389202061198265
    vertex 63.604500000024174 11.505499999992143 -7.389202061198069
    vertex 63.60450000000718 11.505499999995706 -23.98920206119806
  endloop
endfacet
facet normal 0.3089935025275638 -0.9510641489383082 -5.411372736504736e-13
  outer loop
    vertex 63.80900000000266 11.548899999996697 -28.389202061198265
    vertex 63.60450000000718 11.505499999995706 -23.98920206119806
    vertex 63.604500000002666 11.505499999996745 -28.389202061198063
  endloop
endfacet
facet normal -0.1043706765613937 -0.9945384667644168 -1.2788972152306556e-13
  outer loop
    vertex 4.895500000002635 11.50550000001346 -28.389202061137933
    vertex 63.60450000000718 11.505499999995706 -23.98920206119806
    vertex 4.89550000000714 11.505500000012423 -23.98920206113793
  endloop
endfacet
facet normal 0.17524457703789129 -0.9845249302170112 -4.130254693225005e-13
  outer loop
    vertex 63.60450000000718 11.505499999995706 -23.98920206119806
    vertex 4.895500000002635 11.50550000001346 -28.389202061137933
    vertex 63.604500000002666 11.505499999996745 -28.389202061198063
  endloop
endfacet
facet normal -0.3089935025280998 -0.9510641489381342 9.179410552036496e-14
  outer loop
    vertex 4.69100000000265 11.548900000013521 -28.38920206113772
    vertex 4.8955000000241435 11.50550000000886 -7.389202061137933
    vertex 4.691000000024158 11.548900000008919 -7.389202061137722
  endloop
endfacet
facet normal -0.24534665526346566 -0.9694354123669252 2.2055579907808915e-14
  outer loop
    vertex 4.8955000000241435 11.50550000000886 -7.389202061137933
    vertex 4.69100000000265 11.548900000013521 -28.38920206113772
    vertex 4.89550000000714 11.505500000012423 -23.98920206113793
  endloop
endfacet
facet normal -0.17547553301547467 -0.9844837923058638 -5.287563181970074e-14
  outer loop
    vertex 4.89550000000714 11.505500000012423 -23.98920206113793
    vertex 4.69100000000265 11.548900000013521 -28.38920206113772
    vertex 4.895500000002635 11.50550000001346 -28.389202061137933
  endloop
endfacet
facet normal -0.50018580712471 -0.8659181014108681 3.077877863308862e-13
  outer loop
    vertex 4.500000000002669 11.634000000013573 -28.38920206113752
    vertex 4.691000000024158 11.548900000008919 -7.389202061137722
    vertex 4.500000000024174 11.634000000008971 -7.389202061137527
  endloop
endfacet
facet normal -0.30899350252809266 -0.9510641489381364 9.179410552035713e-14
  outer loop
    vertex 4.691000000024158 11.548900000008919 -7.389202061137722
    vertex 4.500000000002669 11.634000000013573 -28.38920206113752
    vertex 4.69100000000265 11.548900000013521 -28.38920206113772
  endloop
endfacet
facet normal -0.6691016671297181 -0.7431708814560969 5.09776145414455e-13
  outer loop
    vertex 4.330900000002697 11.756900000013617 -28.389202061137336
    vertex 4.500000000024174 11.634000000008971 -7.389202061137527
    vertex 4.330900000024204 11.756900000009015 -7.389202061137341
  endloop
endfacet
facet normal -0.5001858071247005 -0.8659181014108737 3.077877863308753e-13
  outer loop
    vertex 4.500000000024174 11.634000000008971 -7.389202061137527
    vertex 4.330900000002697 11.756900000013617 -28.389202061137336
    vertex 4.500000000002669 11.634000000013573 -28.38920206113752
  endloop
endfacet
facet normal -0.6691016671297181 -0.7431708814560969 5.09776145414455e-13
  outer loop
    vertex 4.330900000002697 11.756900000013617 -28.389202061137336
    vertex 4.191000000024263 11.912200000009056 -7.389202061137189
    vertex 4.191000000002755 11.912200000013659 -28.38920206113719
  endloop
endfacet
facet normal -0.8090174887819842 -0.5877845717989647 6.897711689444044e-13
  outer loop
    vertex 4.191000000024263 11.912200000009056 -7.389202061137189
    vertex 4.330900000002697 11.756900000013617 -28.389202061137336
    vertex 4.330900000024204 11.756900000009015 -7.389202061137341
  endloop
endfacet
facet normal -0.8090174887819944 -0.5877845717989507 6.897711689444182e-13
  outer loop
    vertex 4.191000000002755 11.912200000013659 -28.38920206113719
    vertex 4.086500000024308 12.09330000000909 -7.38920206113707
    vertex 4.0865000000028 12.093300000013693 -28.38920206113707
  endloop
endfacet
facet normal -0.913588901944364 -0.40663905154828817 8.396503270589317e-13
  outer loop
    vertex 4.086500000024308 12.09330000000909 -7.38920206113707
    vertex 4.191000000002755 11.912200000013659 -28.38920206113719
    vertex 4.191000000024263 11.912200000009056 -7.389202061137189
  endloop
endfacet
facet normal -0.9135889019443719 -0.4066390515482704 8.396503270589439e-13
  outer loop
    vertex 4.0865000000028 12.093300000013693 -28.38920206113707
    vertex 4.021900000024366 12.29210000000911 -7.389202061136994
    vertex 4.021900000002858 12.292100000013713 -28.38920206113699
  endloop
endfacet
facet normal -0.978120622725423 -0.20803857190249864 9.526436775542018e-13
  outer loop
    vertex 4.021900000024366 12.29210000000911 -7.389202061136994
    vertex 4.0865000000028 12.093300000013693 -28.38920206113707
    vertex 4.086500000024308 12.09330000000909 -7.38920206113707
  endloop
endfacet
facet normal -0.9781206227254271 -0.2080385719024784 9.52643677554211e-13
  outer loop
    vertex 4.021900000002858 12.292100000013713 -28.38920206113699
    vertex 4.000000000024422 12.500000000009114 -7.389202061136957
    vertex 4.000000000002914 12.500000000013715 -28.38920206113696
  endloop
endfacet
facet normal -0.9986234492453699 -0.0524519457911729 1.0103853503516253e-12
  outer loop
    vertex 4.000000000024422 12.500000000009114 -7.389202061136957
    vertex 4.021900000002858 12.292100000013713 -28.38920206113699
    vertex 4.021900000024366 12.29210000000911 -7.389202061136994
  endloop
endfacet
facet normal -1.0241984345205626e-12 2.711111391528905e-13 -1.0
  outer loop
    vertex 8.288218537413492 44.49450000001196 -23.989202061139302
    vertex 63.60450000001628 43.494499999996215 -23.989202061196227
    vertex 4.895500000016242 43.49450000001294 -23.989202061136098
  endloop
endfacet
facet normal -1.0241984345205626e-12 2.711111391528905e-13 -1.0
  outer loop
    vertex 63.60450000001628 43.494499999996215 -23.989202061196227
    vertex 8.288218537413492 44.49450000001196 -23.989202061139302
    vertex 60.20000000001701 44.49449999999719 -23.989202061192472
  endloop
endfacet
facet normal -0.14282605648047814 -0.989747805044414 -8.790016278944155e-14
  outer loop
    vertex 8.288218537420821 10.505500000007897 -7.389202061141644
    vertex 60.20000000000647 10.505499999996685 -23.98920206119471
    vertex 60.20000000002387 10.50549999999312 -7.389202061194716
  endloop
endfacet
facet normal 0.142361490993979 -0.9898147331101773 -3.8188600866702076e-13
  outer loop
    vertex 60.20000000000647 10.505499999996685 -23.98920206119471
    vertex 8.288218537420821 10.505500000007897 -7.389202061141644
    vertex 8.28821853740382 10.505500000011466 -23.989202061141636
  endloop
endfacet
facet normal -1.0237958867946516e-12 2.0564052262758249e-13 -1.0
  outer loop
    vertex 63.60450000000718 11.505499999995706 -23.98920206119806
    vertex 8.28821853740382 10.505500000011466 -23.989202061141636
    vertex 4.89550000000714 11.505500000012423 -23.98920206113793
  endloop
endfacet
facet normal -1.0237958867946516e-12 2.0564052262758249e-13 -1.0
  outer loop
    vertex 8.28821853740382 10.505500000011466 -23.989202061141636
    vertex 63.60450000000718 11.505499999995706 -23.98920206119806
    vertex 60.20000000000647 10.505499999996685 -23.98920206119471
  endloop
endfacet
facet normal -0.17547553301547467 -0.9844837923058638 -5.287563181970074e-14
  outer loop
    vertex 4.89550000000714 11.505500000012423 -23.98920206113793
    vertex 8.288218537420821 10.505500000007897 -7.389202061141644
    vertex 4.8955000000241435 11.50550000000886 -7.389202061137933
  endloop
endfacet
facet normal -0.14282605648047814 -0.989747805044414 -8.790016278944155e-14
  outer loop
    vertex 8.288218537420821 10.505500000007897 -7.389202061141644
    vertex 4.89550000000714 11.505500000012423 -23.98920206113793
    vertex 8.28821853740382 10.505500000011466 -23.989202061141636
  endloop
endfacet
facet normal -0.1428260564799132 0.9897478050444957 3.998362989704641e-13
  outer loop
    vertex 8.288218537413492 44.49450000001196 -23.989202061139302
    vertex 4.895500000033246 43.49450000000887 -7.389202061136196
    vertex 8.288218537430494 44.4945000000079 -7.389202061139399
  endloop
endfacet
facet normal -0.24534665526327623 0.9694354123669731 4.991088369060496e-13
  outer loop
    vertex 4.895500000033246 43.49450000000887 -7.389202061136196
    vertex 8.288218537413492 44.49450000001196 -23.989202061139302
    vertex 4.895500000016242 43.49450000001294 -23.989202061136098
  endloop
endfacet
facet normal 0.14236149099398152 -0.989814733110177 -3.818860086670233e-13
  outer loop
    vertex 60.20000000002387 10.50549999999312 -7.389202061194716
    vertex 63.60450000000718 11.505499999995706 -23.98920206119806
    vertex 63.604500000024174 11.505499999992143 -7.389202061198069
  endloop
endfacet
facet normal 0.17524457703789129 -0.9845249302170112 -4.130254693225005e-13
  outer loop
    vertex 63.60450000000718 11.505499999995706 -23.98920206119806
    vertex 60.20000000002387 10.50549999999312 -7.389202061194716
    vertex 60.20000000000647 10.505499999996685 -23.98920206119471
  endloop
endfacet
facet normal -1.0 3.6740877110759646e-13 1.0386322584220043e-12
  outer loop
    vertex 62.50000000000989 13.49999999999706 -22.389202061196414
    vertex 62.500000000024386 17.49999999999606 -9.389202061196757
    vertex 62.50000000001103 17.49999999999704 -22.389202061196418
  endloop
endfacet
facet normal -1.0 3.6740877110759646e-13 1.0386322584220043e-12
  outer loop
    vertex 62.500000000024386 17.49999999999606 -9.389202061196757
    vertex 62.50000000000989 13.49999999999706 -22.389202061196414
    vertex 62.50000000002266 13.499999999992987 -9.389202061196421
  endloop
endfacet
facet normal -1.0 3.6740877110759646e-13 1.0386322584220043e-12
  outer loop
    vertex 62.50000000002266 13.499999999992987 -9.389202061196421
    vertex 62.50000000000989 13.49999999999706 -22.389202061196414
    vertex 62.50000000002062 13.499999999993054 -11.38920206119642
  endloop
endfacet
facet normal -1.0243258333873317e-12 2.2102123469985109e-13 -1.0
  outer loop
    vertex 62.500000000003205 13.49999999999707 -28.389202061196414
    vertex 4.000000000002914 12.500000000013715 -28.38920206113696
    vertex 4.000000000003199 13.500000000013726 -28.3892020611365
  endloop
endfacet
facet normal -1.0243258333873317e-12 2.2102123469985109e-13 -1.0
  outer loop
    vertex 4.000000000002914 12.500000000013715 -28.38920206113696
    vertex 62.500000000003205 13.49999999999707 -28.389202061196414
    vertex 4.021900000002858 12.292100000013713 -28.38920206113699
  endloop
endfacet
facet normal -1.0243258333873317e-12 2.2102123469985109e-13 -1.0
  outer loop
    vertex 4.021900000002858 12.292100000013713 -28.38920206113699
    vertex 62.500000000003205 13.49999999999707 -28.389202061196414
    vertex 4.0865000000028 12.093300000013693 -28.38920206113707
  endloop
endfacet
facet normal -1.0243258333873317e-12 2.2102123469985109e-13 -1.0
  outer loop
    vertex 4.0865000000028 12.093300000013693 -28.38920206113707
    vertex 62.500000000003205 13.49999999999707 -28.389202061196414
    vertex 4.191000000002755 11.912200000013659 -28.38920206113719
  endloop
endfacet
facet normal -1.0243258333873317e-12 2.2102123469985109e-13 -1.0
  outer loop
    vertex 4.191000000002755 11.912200000013659 -28.38920206113719
    vertex 62.500000000003205 13.49999999999707 -28.389202061196414
    vertex 4.330900000002697 11.756900000013617 -28.389202061137336
  endloop
endfacet
facet normal -1.0243258333873317e-12 2.2102123469985109e-13 -1.0
  outer loop
    vertex 4.330900000002697 11.756900000013617 -28.389202061137336
    vertex 62.500000000003205 13.49999999999707 -28.389202061196414
    vertex 4.500000000002669 11.634000000013573 -28.38920206113752
  endloop
endfacet
facet normal -1.0243258333873317e-12 2.2102123469985109e-13 -1.0
  outer loop
    vertex 4.500000000002669 11.634000000013573 -28.38920206113752
    vertex 62.500000000003205 13.49999999999707 -28.389202061196414
    vertex 4.69100000000265 11.548900000013521 -28.38920206113772
  endloop
endfacet
facet normal -1.0243258333873317e-12 2.2102123469985109e-13 -1.0
  outer loop
    vertex 4.69100000000265 11.548900000013521 -28.38920206113772
    vertex 62.500000000003205 13.49999999999707 -28.389202061196414
    vertex 4.895500000002635 11.50550000001346 -28.389202061137933
  endloop
endfacet
facet normal -1.0243258333873317e-12 2.2102123469985109e-13 -1.0
  outer loop
    vertex 4.895500000002635 11.50550000001346 -28.389202061137933
    vertex 62.500000000003205 13.49999999999707 -28.389202061196414
    vertex 63.604500000002666 11.505499999996745 -28.389202061198063
  endloop
endfacet
facet normal -1.0243258333873317e-12 2.2102123469985109e-13 -1.0
  outer loop
    vertex 63.604500000002666 11.505499999996745 -28.389202061198063
    vertex 62.500000000003205 13.49999999999707 -28.389202061196414
    vertex 64.5000000000032 13.4999999999965 -28.389202061198663
  endloop
endfacet
facet normal -1.0243258333873317e-12 2.2102123469985109e-13 -1.0
  outer loop
    vertex 63.604500000002666 11.505499999996745 -28.389202061198063
    vertex 64.5000000000032 13.4999999999965 -28.389202061198663
    vertex 63.80900000000266 11.548899999996697 -28.389202061198265
  endloop
endfacet
facet normal -1.0243258333873317e-12 2.2102123469985109e-13 -1.0
  outer loop
    vertex 63.80900000000266 11.548899999996697 -28.389202061198265
    vertex 64.5000000000032 13.4999999999965 -28.389202061198663
    vertex 64.00000000000267 11.633999999996632 -28.389202061198457
  endloop
endfacet
facet normal -1.0243258333873317e-12 2.2102123469985109e-13 -1.0
  outer loop
    vertex 64.00000000000267 11.633999999996632 -28.389202061198457
    vertex 64.5000000000032 13.4999999999965 -28.389202061198663
    vertex 64.16910000000271 11.756899999996591 -28.389202061198624
  endloop
endfacet
facet normal -1.0243258333873317e-12 2.2102123469985109e-13 -1.0
  outer loop
    vertex 64.16910000000271 11.756899999996591 -28.389202061198624
    vertex 64.5000000000032 13.4999999999965 -28.389202061198663
    vertex 64.30900000000274 11.912199999996552 -28.38920206119876
  endloop
endfacet
facet normal -1.0243258333873317e-12 2.2102123469985109e-13 -1.0
  outer loop
    vertex 64.30900000000274 11.912199999996552 -28.38920206119876
    vertex 64.5000000000032 13.4999999999965 -28.389202061198663
    vertex 64.41350000000283 12.093299999996526 -28.389202061198855
  endloop
endfacet
facet normal -1.0243258333873317e-12 2.2102123469985109e-13 -1.0
  outer loop
    vertex 64.41350000000283 12.093299999996526 -28.389202061198855
    vertex 64.5000000000032 13.4999999999965 -28.389202061198663
    vertex 64.47810000000288 12.292099999996505 -28.38920206119891
  endloop
endfacet
facet normal -1.0243258333873317e-12 2.2102123469985109e-13 -1.0
  outer loop
    vertex 64.47810000000288 12.292099999996505 -28.38920206119891
    vertex 64.5000000000032 13.4999999999965 -28.389202061198663
    vertex 64.50000000000294 12.499999999996497 -28.38920206119892
  endloop
endfacet
facet normal 2.8458832512795965e-13 1.0 5.474052583740408e-14
  outer loop
    vertex 64.50000000002439 17.499999999995488 -9.389202061198965
    vertex 62.50000000001103 17.49999999999704 -22.389202061196418
    vertex 62.500000000024386 17.49999999999606 -9.389202061196757
  endloop
endfacet
facet normal 2.8458832512795965e-13 1.0 5.474052583740408e-14
  outer loop
    vertex 62.50000000001103 17.49999999999704 -22.389202061196418
    vertex 64.50000000002439 17.499999999995488 -9.389202061198965
    vertex 64.50000000001103 17.499999999996472 -22.389202061198635
  endloop
endfacet
facet normal -2.8458832512795344e-13 -1.0 -5.308172202414058e-14
  outer loop
    vertex 62.500000000030106 37.499999999996085 -9.389202061195778
    vertex 64.50000000001559 37.499999999996454 -22.389202061197487
    vertex 64.5000000000301 37.499999999995524 -9.38920206119782
  endloop
endfacet
facet normal -2.8458832512795344e-13 -1.0 -5.308172202414058e-14
  outer loop
    vertex 64.50000000001559 37.499999999996454 -22.389202061197487
    vertex 62.500000000030106 37.499999999996085 -9.389202061195778
    vertex 62.500000000015596 37.49999999999702 -22.389202061195437
  endloop
endfacet
facet normal -1.0 2.11269196581654e-13 1.0414337012483955e-12
  outer loop
    vertex 62.500000000015596 37.49999999999702 -22.389202061195437
    vertex 62.50000000003066 41.499999999992994 -9.38920206119562
    vertex 62.50000000001674 41.49999999999703 -22.38920206119561
  endloop
endfacet
facet normal -1.0 2.11269196581654e-13 1.0414337012483955e-12
  outer loop
    vertex 62.50000000003066 41.499999999992994 -9.38920206119562
    vertex 62.500000000015596 37.49999999999702 -22.389202061195437
    vertex 62.500000000030106 37.499999999996085 -9.389202061195778
  endloop
endfacet
facet normal -1.0275325576432161e-12 3.687391983345143e-14 -1.0
  outer loop
    vertex 62.50000000003066 41.499999999992994 -9.38920206119562
    vertex 4.000000000022663 13.500000000009637 -9.3892020611365
    vertex 4.000000000030631 41.50000000000964 -9.389202061135698
  endloop
endfacet
facet normal -1.0275325576432161e-12 3.687391983345143e-14 -1.0
  outer loop
    vertex 4.000000000022663 13.500000000009637 -9.3892020611365
    vertex 62.50000000003066 41.499999999992994 -9.38920206119562
    vertex 62.50000000002266 13.499999999992987 -9.389202061196421
  endloop
endfacet
facet normal -1.0275325576432161e-12 3.687391983345143e-14 -1.0
  outer loop
    vertex 62.50000000002266 13.499999999992987 -9.389202061196421
    vertex 62.50000000003066 41.499999999992994 -9.38920206119562
    vertex 62.500000000024386 17.49999999999606 -9.389202061196757
  endloop
endfacet
facet normal -1.0275325576432161e-12 3.687391983345143e-14 -1.0
  outer loop
    vertex 62.500000000024386 17.49999999999606 -9.389202061196757
    vertex 62.50000000003066 41.499999999992994 -9.38920206119562
    vertex 62.500000000030106 37.499999999996085 -9.389202061195778
  endloop
endfacet
facet normal -1.0275325576432161e-12 3.687391983345143e-14 -1.0
  outer loop
    vertex 62.500000000024386 17.49999999999606 -9.389202061196757
    vertex 62.500000000030106 37.499999999996085 -9.389202061195778
    vertex 64.50000000002439 17.499999999995488 -9.389202061198965
  endloop
endfacet
facet normal -1.0275325576432161e-12 3.687391983345143e-14 -1.0
  outer loop
    vertex 64.50000000002439 17.499999999995488 -9.389202061198965
    vertex 62.500000000030106 37.499999999996085 -9.389202061195778
    vertex 64.5000000000301 37.499999999995524 -9.38920206119782
  endloop
endfacet
facet normal -1.0237673795628008e-12 1.8934169506598478e-13 -1.0
  outer loop
    vertex 4.000000000011454 42.50000000001371 -28.389202061135236
    vertex 62.5000000000112 41.49999999999707 -28.389202061195615
    vertex 4.000000000011167 41.50000000001373 -28.389202061135695
  endloop
endfacet
facet normal -1.0237673795628008e-12 1.8934169506598478e-13 -1.0
  outer loop
    vertex 62.5000000000112 41.49999999999707 -28.389202061195615
    vertex 4.000000000011454 42.50000000001371 -28.389202061135236
    vertex 4.021900000011514 42.7079000000137 -28.38920206113525
  endloop
endfacet
facet normal -1.0237673795628008e-12 1.8934169506598478e-13 -1.0
  outer loop
    vertex 62.5000000000112 41.49999999999707 -28.389202061195615
    vertex 4.021900000011514 42.7079000000137 -28.38920206113525
    vertex 4.08650000001157 42.906700000013686 -28.389202061135308
  endloop
endfacet
facet normal -1.0237673795628008e-12 1.8934169506598478e-13 -1.0
  outer loop
    vertex 62.5000000000112 41.49999999999707 -28.389202061195615
    vertex 4.08650000001157 42.906700000013686 -28.389202061135308
    vertex 4.191000000011627 43.087800000013644 -28.389202061135403
  endloop
endfacet
facet normal -1.0237673795628008e-12 1.8934169506598478e-13 -1.0
  outer loop
    vertex 62.5000000000112 41.49999999999707 -28.389202061195615
    vertex 4.191000000011627 43.087800000013644 -28.389202061135403
    vertex 4.330900000011657 43.24310000001362 -28.38920206113554
  endloop
endfacet
facet normal -1.0237673795628008e-12 1.8934169506598478e-13 -1.0
  outer loop
    vertex 62.5000000000112 41.49999999999707 -28.389202061195615
    vertex 4.330900000011657 43.24310000001362 -28.38920206113554
    vertex 4.500000000011697 43.36600000001357 -28.389202061135702
  endloop
endfacet
facet normal -1.0237673795628008e-12 1.8934169506598478e-13 -1.0
  outer loop
    vertex 62.5000000000112 41.49999999999707 -28.389202061195615
    vertex 4.500000000011697 43.36600000001357 -28.389202061135702
    vertex 4.691000000011729 43.45110000001352 -28.389202061135894
  endloop
endfacet
facet normal -1.0237673795628008e-12 1.8934169506598478e-13 -1.0
  outer loop
    vertex 62.5000000000112 41.49999999999707 -28.389202061195615
    vertex 4.691000000011729 43.45110000001352 -28.389202061135894
    vertex 4.8955000000117375 43.49450000001346 -28.3892020611361
  endloop
endfacet
facet normal -1.0237673795628008e-12 1.8934169506598478e-13 -1.0
  outer loop
    vertex 62.5000000000112 41.49999999999707 -28.389202061195615
    vertex 4.8955000000117375 43.49450000001346 -28.3892020611361
    vertex 63.60450000001177 43.494499999996734 -28.38920206119623
  endloop
endfacet
facet normal -1.0237673795628008e-12 1.8934169506598478e-13 -1.0
  outer loop
    vertex 62.5000000000112 41.49999999999707 -28.389202061195615
    vertex 63.60450000001177 43.494499999996734 -28.38920206119623
    vertex 64.5000000000112 41.499999999996504 -28.38920206119726
  endloop
endfacet
facet normal -1.0237673795628008e-12 1.8934169506598478e-13 -1.0
  outer loop
    vertex 64.5000000000112 41.499999999996504 -28.38920206119726
    vertex 63.60450000001177 43.494499999996734 -28.38920206119623
    vertex 63.80900000001174 43.45109999999669 -28.389202061196443
  endloop
endfacet
facet normal -1.0237673795628008e-12 1.8934169506598478e-13 -1.0
  outer loop
    vertex 64.5000000000112 41.499999999996504 -28.38920206119726
    vertex 63.80900000001174 43.45109999999669 -28.389202061196443
    vertex 64.00000000001172 43.365999999996625 -28.38920206119664
  endloop
endfacet
facet normal -1.0237673795628008e-12 1.8934169506598478e-13 -1.0
  outer loop
    vertex 64.5000000000112 41.499999999996504 -28.38920206119726
    vertex 64.00000000001172 43.365999999996625 -28.38920206119664
    vertex 64.1691000000117 43.243099999996595 -28.38920206119682
  endloop
endfacet
facet normal -1.0237673795628008e-12 1.8934169506598478e-13 -1.0
  outer loop
    vertex 64.5000000000112 41.499999999996504 -28.38920206119726
    vertex 64.1691000000117 43.243099999996595 -28.38920206119682
    vertex 64.30900000001164 43.08779999999655 -28.389202061196972
  endloop
endfacet
facet normal -1.0237673795628008e-12 1.8934169506598478e-13 -1.0
  outer loop
    vertex 64.5000000000112 41.499999999996504 -28.38920206119726
    vertex 64.30900000001164 43.08779999999655 -28.389202061196972
    vertex 64.41350000001157 42.90669999999652 -28.389202061197093
  endloop
endfacet
facet normal -1.0237673795628008e-12 1.8934169506598478e-13 -1.0
  outer loop
    vertex 64.5000000000112 41.499999999996504 -28.38920206119726
    vertex 64.41350000001157 42.90669999999652 -28.389202061197093
    vertex 64.47810000001151 42.7078999999965 -28.38920206119717
  endloop
endfacet
facet normal -1.0237673795628008e-12 1.8934169506598478e-13 -1.0
  outer loop
    vertex 64.5000000000112 41.499999999996504 -28.38920206119726
    vertex 64.47810000001151 42.7078999999965 -28.38920206119717
    vertex 64.50000000001148 42.49999999999649 -28.389202061197203
  endloop
endfacet
facet normal -9.238970835548542e-13 7.138040158920806e-15 -1.0
  outer loop
    vertex 64.50000000001674 41.49999999999646 -22.38920206119726
    vertex 62.500000000015596 37.49999999999702 -22.389202061195437
    vertex 62.50000000001674 41.49999999999703 -22.38920206119561
  endloop
endfacet
facet normal -9.238970835548542e-13 7.138040158920806e-15 -1.0
  outer loop
    vertex 62.500000000015596 37.49999999999702 -22.389202061195437
    vertex 64.50000000001674 41.49999999999646 -22.38920206119726
    vertex 64.50000000001559 37.499999999996454 -22.389202061197487
  endloop
endfacet
facet normal -2.8458832512790497e-13 -1.0 -7.138040158657876e-15
  outer loop
    vertex 62.50000000001674 41.49999999999703 -22.38920206119561
    vertex 64.5000000000112 41.499999999996504 -28.38920206119726
    vertex 64.50000000001674 41.49999999999646 -22.38920206119726
  endloop
endfacet
facet normal -2.8458832512790497e-13 -1.0 -7.138040158657876e-15
  outer loop
    vertex 64.5000000000112 41.499999999996504 -28.38920206119726
    vertex 62.50000000001674 41.49999999999703 -22.38920206119561
    vertex 62.5000000000112 41.49999999999707 -28.389202061195615
  endloop
endfacet
facet normal -1.115831052273272e-12 2.9962143877332333e-15 -1.0
  outer loop
    vertex 64.50000000001103 17.499999999996472 -22.389202061198635
    vertex 62.50000000000989 13.49999999999706 -22.389202061196414
    vertex 62.50000000001103 17.49999999999704 -22.389202061196418
  endloop
endfacet
facet normal -1.115831052273272e-12 2.9962143877332333e-15 -1.0
  outer loop
    vertex 62.50000000000989 13.49999999999706 -22.389202061196414
    vertex 64.50000000001103 17.499999999996472 -22.389202061198635
    vertex 64.50000000000989 13.49999999999649 -22.389202061198663
  endloop
endfacet
facet normal 2.8458832512790244e-13 1.0 2.9962143874156805e-15
  outer loop
    vertex 64.50000000000989 13.49999999999649 -22.389202061198663
    vertex 62.500000000003205 13.49999999999707 -28.389202061196414
    vertex 62.50000000000989 13.49999999999706 -22.389202061196414
  endloop
endfacet
facet normal 2.8458832512790244e-13 1.0 2.9962143874156805e-15
  outer loop
    vertex 62.500000000003205 13.49999999999707 -28.389202061196414
    vertex 64.50000000000989 13.49999999999649 -22.389202061198663
    vertex 64.5000000000032 13.4999999999965 -28.389202061198663
  endloop
endfacet
facet normal -4.0389678347315804e-28 0.7071067811865481 0.707106781186547
  outer loop
    vertex 38.00000166894232 44.49449999999925 -10.983705875871541
    vertex 31.499997854245045 40.89999618529464 -7.389202061164314
    vertex 38.0000016689423 40.899996185297944 -7.389202061170227
  endloop
endfacet
facet normal -4.0389678347315804e-28 0.7071067811865481 0.707106781186547
  outer loop
    vertex 31.499997854245045 40.89999618529464 -7.389202061164314
    vertex 38.00000166894232 44.49449999999925 -10.983705875871541
    vertex 31.499997854245056 44.494500000001835 -10.983705875871516
  endloop
endfacet
facet normal 1.0 -2.855659230231383e-13 -2.8556592302313763e-13
  outer loop
    vertex 57.00000166894234 40.89999618532077 -7.389202061190427
    vertex 57.000001668942296 44.49449999999459 -10.983705875864255
    vertex 57.00000166894334 44.49449999999404 -7.389202061190181
  endloop
endfacet
facet normal -1.0 1.0230163835694772e-12 1.0230163835694758e-12
  outer loop
    vertex 38.0000016689423 40.899996185297944 -7.389202061170227
    vertex 38.000001668945984 44.49449999999897 -7.389202061169917
    vertex 38.00000166894232 44.49449999999925 -10.983705875871541
  endloop
endfacet
facet normal 0.14236149099456755 0.9898147331100925 1.0987900716519299e-13
  outer loop
    vertex 60.20000000001701 44.49449999999719 -23.989202061192472
    vertex 57.000001668942296 44.49449999999459 -10.983705875864255
    vertex 60.20000000002992 44.49449999999367 -10.983705875863913
  endloop
endfacet
facet normal 2.8813992787083874e-13 1.0 2.4188856598639783e-13
  outer loop
    vertex 57.000001668942296 44.49449999999459 -10.983705875864255
    vertex 60.20000000001701 44.49449999999719 -23.989202061192472
    vertex 38.00000166894232 44.49449999999925 -10.983705875871541
  endloop
endfacet
facet normal 2.8813992787083874e-13 1.0 2.4188856598639783e-13
  outer loop
    vertex 38.00000166894232 44.49449999999925 -10.983705875871541
    vertex 60.20000000001701 44.49449999999719 -23.989202061192472
    vertex 31.499997854245056 44.494500000001835 -10.983705875871516
  endloop
endfacet
facet normal 2.8813992787083874e-13 1.0 2.4188856598639783e-13
  outer loop
    vertex 31.499997854245056 44.494500000001835 -10.983705875871516
    vertex 60.20000000001701 44.49449999999719 -23.989202061192472
    vertex 8.288218537413492 44.49450000001196 -23.989202061139302
  endloop
endfacet
facet normal 2.8813992787083874e-13 1.0 2.4188856598639783e-13
  outer loop
    vertex 31.499997854246065 44.494500000001516 -7.38920206116415
    vertex 8.288218537413492 44.49450000001196 -23.989202061139302
    vertex 8.288218537430494 44.4945000000079 -7.389202061139399
  endloop
endfacet
facet normal -0.1428260564799132 0.9897478050444957 3.998362989704641e-13
  outer loop
    vertex 8.288218537413492 44.49450000001196 -23.989202061139302
    vertex 31.499997854246065 44.494500000001516 -7.38920206116415
    vertex 31.499997854245056 44.494500000001835 -10.983705875871516
  endloop
endfacet
facet normal 2.8813992787083874e-13 1.0 2.4188856598639783e-13
  outer loop
    vertex 57.00000166894334 44.49449999999404 -7.389202061190181
    vertex 38.00000166894232 44.49449999999925 -10.983705875871541
    vertex 38.000001668945984 44.49449999999897 -7.389202061169917
  endloop
endfacet
facet normal 2.8813992787083874e-13 1.0 2.4188856598639783e-13
  outer loop
    vertex 38.00000166894232 44.49449999999925 -10.983705875871541
    vertex 57.00000166894334 44.49449999999404 -7.389202061190181
    vertex 57.000001668942296 44.49449999999459 -10.983705875864255
  endloop
endfacet
facet normal 1.0 -2.8399687948739526e-13 -2.8399687948739486e-13
  outer loop
    vertex 31.499997854245045 40.89999618529464 -7.389202061164314
    vertex 31.499997854245056 44.494500000001835 -10.983705875871516
    vertex 31.499997854246065 44.494500000001516 -7.38920206116415
  endloop
endfacet
facet normal -0.05735506823570324 0.7015576833149226 0.710300790601754
  outer loop
    vertex 64.00000166894233 40.89999618532662 -7.3892020611968565
    vertex 63.92002937004796 42.72274372063054 -9.182469516062351
    vertex 63.718738345799565 42.74509273530419 -9.234298611174482
  endloop
endfacet
facet normal -0.10594546554575265 0.6950057006462312 0.7111558439607558
  outer loop
    vertex 63.92002937004796 42.72274372063054 -9.182469516062351
    vertex 64.00000166894233 40.89999618532662 -7.3892020611968565
    vertex 64.10611455684007 42.66988505516535 -9.103088947018117
  endloop
endfacet
facet normal -0.10594546554575265 0.6950057006462312 0.7111558439607558
  outer loop
    vertex 64.10611455684007 42.66988505516535 -9.103088947018117
    vertex 64.00000166894233 40.89999618532662 -7.3892020611968565
    vertex 64.49672022740279 40.92151160047693 -7.336229505237462
  endloop
endfacet
facet normal -0.10594546554575265 0.6950057006462312 0.7111558439607558
  outer loop
    vertex 64.10611455684007 42.66988505516535 -9.103088947018117
    vertex 64.49672022740279 40.92151160047693 -7.336229505237462
    vertex 64.2688168273383 42.58895436883094 -8.999757368184941
  endloop
endfacet
facet normal -0.10594546554575265 0.6950057006462312 0.7111558439607558
  outer loop
    vertex 64.2688168273383 42.58895436883094 -8.999757368184941
    vertex 64.49672022740279 40.92151160047693 -7.336229505237462
    vertex 64.40111643364209 42.48351319873763 -8.877001212244748
  endloop
endfacet
facet normal -0.10594546554575265 0.6950057006462312 0.7111558439607558
  outer loop
    vertex 64.40111643364209 42.48351319873763 -8.877001212244748
    vertex 64.49672022740279 40.92151160047693 -7.336229505237462
    vertex 64.49713804949575 42.358031674560436 -8.740064378708194
  endloop
endfacet
facet normal -0.10594546554575265 0.6950057006462312 0.7111558439607558
  outer loop
    vertex 64.49713804949575 42.358031674560436 -8.740064378708194
    vertex 64.49672022740279 40.92151160047693 -7.336229505237462
    vertex 64.5655699498396 42.06985899610497 -8.448241277485664
  endloop
endfacet
facet normal -0.10594546554575265 0.6950057006462312 0.7111558439607558
  outer loop
    vertex 64.49713804949575 42.358031674560436 -8.740064378708194
    vertex 64.5655699498396 42.06985899610497 -8.448241277485664
    vertex 64.5527597438403 42.218129651746686 -8.595053168345464
  endloop
endfacet
facet normal 0.2818230024276036 0.9594664117636902 -2.4368845683148572e-14
  outer loop
    vertex 63.60450000001628 43.494499999996215 -23.989202061196227
    vertex 60.20000000002992 44.49449999999367 -10.983705875863913
    vertex 63.60450000003051 43.49449999999244 -9.98370587586273
  endloop
endfacet
facet normal 0.1537982609621133 0.9881022694665921 9.905756996772189e-14
  outer loop
    vertex 60.20000000002992 44.49449999999367 -10.983705875863913
    vertex 63.60450000001628 43.494499999996215 -23.989202061196227
    vertex 60.20000000001701 44.49449999999719 -23.989202061192472
  endloop
endfacet
facet normal -0.05304829601670584 0.702056266418475 0.7101428568057806
  outer loop
    vertex 63.718738345799565 42.74509273530419 -9.234298611174482
    vertex 57.00000166894234 40.89999618532077 -7.389202061190427
    vertex 64.00000166894233 40.89999618532662 -7.3892020611968565
  endloop
endfacet
facet normal 6.283759715584548e-14 0.707106781186564 0.7071067811865311
  outer loop
    vertex 57.00000166894234 40.89999618532077 -7.389202061190427
    vertex 63.718738345799565 42.74509273530419 -9.234298611174482
    vertex 57.000001668942296 44.49449999999459 -10.983705875864255
  endloop
endfacet
facet normal 6.283759715584548e-14 0.707106781186564 0.7071067811865311
  outer loop
    vertex 57.000001668942296 44.49449999999459 -10.983705875864255
    vertex 63.718738345799565 42.74509273530419 -9.234298611174482
    vertex 63.60450000003051 43.49449999999244 -9.98370587586273
  endloop
endfacet
facet normal 6.283759715584548e-14 0.707106781186564 0.7071067811865311
  outer loop
    vertex 57.000001668942296 44.49449999999459 -10.983705875864255
    vertex 63.60450000003051 43.49449999999244 -9.98370587586273
    vertex 60.20000000002992 44.49449999999367 -10.983705875863913
  endloop
endfacet
facet normal 1.0275474893529027e-12 -4.960726802914495e-14 1.0
  outer loop
    vertex 60.20000000002387 10.50549999999312 -7.389202061194716
    vertex 31.499997854245045 40.89999618529464 -7.389202061164314
    vertex 8.288218537420821 10.505500000007897 -7.389202061141644
  endloop
endfacet
facet normal 1.0275474893529027e-12 -4.960726802914495e-14 1.0
  outer loop
    vertex 31.499997854245045 40.89999618529464 -7.389202061164314
    vertex 60.20000000002387 10.50549999999312 -7.389202061194716
    vertex 38.0000016689423 40.899996185297944 -7.389202061170227
  endloop
endfacet
facet normal 1.0275474893529027e-12 -4.960726802914495e-14 1.0
  outer loop
    vertex 38.0000016689423 40.899996185297944 -7.389202061170227
    vertex 60.20000000002387 10.50549999999312 -7.389202061194716
    vertex 38.000001668945984 44.49449999999897 -7.389202061169917
  endloop
endfacet
facet normal 1.0275474893529027e-12 -4.960726802914495e-14 1.0
  outer loop
    vertex 38.000001668945984 44.49449999999897 -7.389202061169917
    vertex 60.20000000002387 10.50549999999312 -7.389202061194716
    vertex 57.00000166894234 40.89999618532077 -7.389202061190427
  endloop
endfacet
facet normal 1.0275474893529027e-12 -4.960726802914495e-14 1.0
  outer loop
    vertex 38.000001668945984 44.49449999999897 -7.389202061169917
    vertex 57.00000166894234 40.89999618532077 -7.389202061190427
    vertex 57.00000166894334 44.49449999999404 -7.389202061190181
  endloop
endfacet
facet normal 1.0275474893529027e-12 -4.960726802914495e-14 1.0
  outer loop
    vertex 57.00000166894234 40.89999618532077 -7.389202061190427
    vertex 60.20000000002387 10.50549999999312 -7.389202061194716
    vertex 64.00000166894233 40.89999618532662 -7.3892020611968565
  endloop
endfacet
facet normal -0.0536080971326024 -0.00031105273446733523 0.9985620036672825
  outer loop
    vertex 64.00000166894233 40.89999618532662 -7.3892020611968565
    vertex 60.20000000002387 10.50549999999312 -7.389202061194716
    vertex 63.604500000024174 11.505499999992143 -7.389202061198069
  endloop
endfacet
facet normal -0.0536080971326024 -0.00031105273446733523 0.9985620036672825
  outer loop
    vertex 64.00000166894233 40.89999618532662 -7.3892020611968565
    vertex 63.604500000024174 11.505499999992143 -7.389202061198069
    vertex 63.80900000002417 11.548899999992095 -7.389202061198269
  endloop
endfacet
facet normal -0.0536080971326024 -0.00031105273446733523 0.9985620036672825
  outer loop
    vertex 64.00000166894233 40.89999618532662 -7.3892020611968565
    vertex 63.80900000002417 11.548899999992095 -7.389202061198269
    vertex 64.00000000002417 11.63399999999203 -7.389202061198458
  endloop
endfacet
facet normal -0.0536080971326024 -0.00031105273446733523 0.9985620036672825
  outer loop
    vertex 64.00000166894233 40.89999618532662 -7.3892020611968565
    vertex 64.00000000002417 11.63399999999203 -7.389202061198458
    vertex 64.16910000002422 11.756899999991989 -7.3892020611986275
  endloop
endfacet
facet normal 1.0275474893529027e-12 -4.960726802914495e-14 1.0
  outer loop
    vertex 4.021900000024366 12.29210000000911 -7.389202061136994
    vertex 4.000000000032959 42.50000000000912 -7.389202061135339
    vertex 4.000000000024422 12.500000000009114 -7.389202061136957
  endloop
endfacet
facet normal 1.0275474893529027e-12 -4.960726802914495e-14 1.0
  outer loop
    vertex 4.000000000032959 42.50000000000912 -7.389202061135339
    vertex 4.021900000024366 12.29210000000911 -7.389202061136994
    vertex 4.021900000033022 42.70790000000911 -7.3892020611353475
  endloop
endfacet
facet normal 1.0275474893529027e-12 -4.960726802914495e-14 1.0
  outer loop
    vertex 4.021900000033022 42.70790000000911 -7.3892020611353475
    vertex 4.021900000024366 12.29210000000911 -7.389202061136994
    vertex 4.086500000024308 12.09330000000909 -7.38920206113707
  endloop
endfacet
facet normal 1.0275474893529027e-12 -4.960726802914495e-14 1.0
  outer loop
    vertex 4.021900000033022 42.70790000000911 -7.3892020611353475
    vertex 4.086500000024308 12.09330000000909 -7.38920206113707
    vertex 4.0865000000330785 42.906700000009096 -7.3892020611354035
  endloop
endfacet
facet normal 1.0275474893529027e-12 -4.960726802914495e-14 1.0
  outer loop
    vertex 4.0865000000330785 42.906700000009096 -7.3892020611354035
    vertex 4.086500000024308 12.09330000000909 -7.38920206113707
    vertex 4.191000000024263 11.912200000009056 -7.389202061137189
  endloop
endfacet
facet normal 1.0275474893529027e-12 -4.960726802914495e-14 1.0
  outer loop
    vertex 4.0865000000330785 42.906700000009096 -7.3892020611354035
    vertex 4.191000000024263 11.912200000009056 -7.389202061137189
    vertex 4.191000000033135 43.087800000009054 -7.389202061135499
  endloop
endfacet
facet normal 1.0275474893529027e-12 -4.960726802914495e-14 1.0
  outer loop
    vertex 4.191000000033135 43.087800000009054 -7.389202061135499
    vertex 4.191000000024263 11.912200000009056 -7.389202061137189
    vertex 4.330900000024204 11.756900000009015 -7.389202061137341
  endloop
endfacet
facet normal 1.0275474893529027e-12 -4.960726802914495e-14 1.0
  outer loop
    vertex 4.191000000033135 43.087800000009054 -7.389202061135499
    vertex 4.330900000024204 11.756900000009015 -7.389202061137341
    vertex 4.330900000033165 43.24310000000903 -7.389202061135634
  endloop
endfacet
facet normal 1.0275474893529027e-12 -4.960726802914495e-14 1.0
  outer loop
    vertex 4.330900000033165 43.24310000000903 -7.389202061135634
    vertex 4.330900000024204 11.756900000009015 -7.389202061137341
    vertex 4.500000000024174 11.634000000008971 -7.389202061137527
  endloop
endfacet
facet normal 1.0275474893529027e-12 -4.960726802914495e-14 1.0
  outer loop
    vertex 4.330900000033165 43.24310000000903 -7.389202061135634
    vertex 4.500000000024174 11.634000000008971 -7.389202061137527
    vertex 4.500000000033205 43.36600000000898 -7.389202061135807
  endloop
endfacet
facet normal 1.0275474893529027e-12 -4.960726802914495e-14 1.0
  outer loop
    vertex 4.500000000033205 43.36600000000898 -7.389202061135807
    vertex 4.500000000024174 11.634000000008971 -7.389202061137527
    vertex 4.691000000024158 11.548900000008919 -7.389202061137722
  endloop
endfacet
facet normal 1.0275474893529027e-12 -4.960726802914495e-14 1.0
  outer loop
    vertex 4.500000000033205 43.36600000000898 -7.389202061135807
    vertex 4.691000000024158 11.548900000008919 -7.389202061137722
    vertex 4.691000000033237 43.45110000000893 -7.389202061135993
  endloop
endfacet
facet normal 1.0275474893529027e-12 -4.960726802914495e-14 1.0
  outer loop
    vertex 4.691000000033237 43.45110000000893 -7.389202061135993
    vertex 4.691000000024158 11.548900000008919 -7.389202061137722
    vertex 4.8955000000241435 11.50550000000886 -7.389202061137933
  endloop
endfacet
facet normal 1.0275474893529027e-12 -4.960726802914495e-14 1.0
  outer loop
    vertex 4.691000000033237 43.45110000000893 -7.389202061135993
    vertex 4.8955000000241435 11.50550000000886 -7.389202061137933
    vertex 4.895500000033246 43.49450000000887 -7.389202061136196
  endloop
endfacet
facet normal 1.0275474893529027e-12 -4.960726802914495e-14 1.0
  outer loop
    vertex 4.895500000033246 43.49450000000887 -7.389202061136196
    vertex 4.8955000000241435 11.50550000000886 -7.389202061137933
    vertex 8.288218537430494 44.4945000000079 -7.389202061139399
  endloop
endfacet
facet normal 1.0275474893529027e-12 -4.960726802914495e-14 1.0
  outer loop
    vertex 8.288218537430494 44.4945000000079 -7.389202061139399
    vertex 4.8955000000241435 11.50550000000886 -7.389202061137933
    vertex 8.288218537420821 10.505500000007897 -7.389202061141644
  endloop
endfacet
facet normal 1.0275474893529027e-12 -4.960726802914495e-14 1.0
  outer loop
    vertex 8.288218537430494 44.4945000000079 -7.389202061139399
    vertex 8.288218537420821 10.505500000007897 -7.389202061141644
    vertex 31.499997854246065 44.494500000001516 -7.38920206116415
  endloop
endfacet
facet normal 1.0275474893529027e-12 -4.960726802914495e-14 1.0
  outer loop
    vertex 31.499997854246065 44.494500000001516 -7.38920206116415
    vertex 8.288218537420821 10.505500000007897 -7.389202061141644
    vertex 31.499997854245045 40.89999618529464 -7.389202061164314
  endloop
endfacet
facet normal -0.10520480387125405 -0.0006243278673632668 0.994450380590769
  outer loop
    vertex 64.49672022740279 40.92151160047693 -7.336229505237462
    vertex 64.00000166894233 40.89999618532662 -7.3892020611968565
    vertex 64.16910000002422 11.756899999991989 -7.3892020611986275
  endloop
endfacet
facet normal -0.10520480387125405 -0.0006243278673632668 0.994450380590769
  outer loop
    vertex 64.49672022740279 40.92151160047693 -7.336229505237462
    vertex 64.16910000002422 11.756899999991989 -7.3892020611986275
    vertex 64.30900000002426 11.91219999999195 -7.389202061198768
  endloop
endfacet
facet normal -0.10520480387125405 -0.0006243278673632668 0.994450380590769
  outer loop
    vertex 64.49672022740279 40.92151160047693 -7.336229505237462
    vertex 64.30900000002426 11.91219999999195 -7.389202061198768
    vertex 64.41350000002434 12.093299999991924 -7.389202061198864
  endloop
endfacet
facet normal 0.008053296942596338 -0.0018596391954640527 0.9999658424918408
  outer loop
    vertex 64.47810000002438 12.292099999991903 -7.389202061198912
    vertex 64.49672022740279 40.92151160047693 -7.336229505237462
    vertex 64.41350000002434 12.093299999991924 -7.389202061198864
  endloop
endfacet
facet normal -0.10520480387125405 -0.0006243278673632668 0.994450380590769
  outer loop
    vertex 64.49672022740279 40.92151160047693 -7.336229505237462
    vertex 64.47810000002438 12.292099999991903 -7.389202061198912
    vertex 64.50000000002444 12.499999999991894 -7.389202061198921
  endloop
endfacet
facet normal 0.9986282428609383 -0.05236060118361834 -2.04083927854565e-06
  outer loop
    vertex 64.50000000002444 12.499999999991894 -7.389202061198921
    vertex 64.50000000002439 17.499999999995488 -9.389202061198965
    vertex 64.49672022740279 40.92151160047693 -7.336229505237462
  endloop
endfacet
facet normal 0.99999999266831 0.00011834638834528493 2.564201138086226e-05
  outer loop
    vertex 64.50000000002439 17.499999999995488 -9.389202061198965
    vertex 64.50000000002444 12.499999999991894 -7.389202061198921
    vertex 64.50000000000989 13.49999999999649 -22.389202061198663
  endloop
endfacet
facet normal 0.9999999927215006 0.00012058359847526744 -4.073630629513081e-06
  outer loop
    vertex 64.50000000000989 13.49999999999649 -22.389202061198663
    vertex 64.50000000002444 12.499999999991894 -7.389202061198921
    vertex 64.50000000000294 12.499999999996497 -28.38920206119892
  endloop
endfacet
facet normal 0.9986266098499714 -0.05239173689994492 -2.039629943273646e-06
  outer loop
    vertex 64.50000000000294 12.499999999996497 -28.38920206119892
    vertex 64.5000000000032 13.4999999999965 -28.389202061198663
    vertex 64.50000000000989 13.49999999999649 -22.389202061198663
  endloop
endfacet
facet normal 0.9999999927215006 0.00012058359847526744 -4.073630629513081e-06
  outer loop
    vertex 64.50000000000989 13.49999999999649 -22.389202061198663
    vertex 64.50000000001103 17.499999999996472 -22.389202061198635
    vertex 64.50000000002439 17.499999999995488 -9.389202061198965
  endloop
endfacet
facet normal 0.99999999266831 0.00011834638834528493 2.564201138086226e-05
  outer loop
    vertex 64.50000000002439 17.499999999995488 -9.389202061198965
    vertex 64.5000000000301 37.499999999995524 -9.38920206119782
    vertex 64.49672022740279 40.92151160047693 -7.336229505237462
  endloop
endfacet
facet normal 0.999804105596527 -0.01978990738053565 -0.0003316597637413944
  outer loop
    vertex 64.49672022740279 40.92151160047693 -7.336229505237462
    vertex 64.50000000001559 37.499999999996454 -22.389202061197487
    vertex 64.50000000001674 41.49999999999646 -22.38920206119726
  endloop
endfacet
facet normal 0.9999999212158766 0.0003737798958465408 0.00013362945146148714
  outer loop
    vertex 64.50000000001559 37.499999999996454 -22.389202061197487
    vertex 64.49672022740279 40.92151160047693 -7.336229505237462
    vertex 64.5000000000301 37.499999999995524 -9.38920206119782
  endloop
endfacet
facet normal 0.999804105596527 -0.01978990738053565 -0.0003316597637413944
  outer loop
    vertex 64.49672022740279 40.92151160047693 -7.336229505237462
    vertex 64.50000000001674 41.49999999999646 -22.38920206119726
    vertex 64.5655699498396 42.06985899610497 -8.448241277485664
  endloop
endfacet
facet normal 0.9970893089411678 -0.07624244189420216 7.016675301524877e-06
  outer loop
    vertex 64.50000000001674 41.49999999999646 -22.38920206119726
    vertex 64.5000000000112 41.499999999996504 -28.38920206119726
    vertex 64.5655699498396 42.06985899610497 -8.448241277485664
  endloop
endfacet
facet normal 0.999992598961486 -0.0020927542145083664 -0.0032283745214267416
  outer loop
    vertex 64.5000000000112 41.499999999996504 -28.38920206119726
    vertex 64.50000000001148 42.49999999999649 -28.389202061197203
    vertex 64.5655699498396 42.06985899610497 -8.448241277485664
  endloop
endfacet
facet normal 0.999682155414822 -0.025131344445266476 -0.0020009176767988067
  outer loop
    vertex 64.5655699498396 42.06985899610497 -8.448241277485664
    vertex 64.50000000001148 42.49999999999649 -28.389202061197203
    vertex 64.5527597438403 42.218129651746686 -8.595053168345464
  endloop
endfacet
facet normal 0.9874852368915786 0.15771110324197848 0.0003388736946586129
  outer loop
    vertex 64.5527597438403 42.218129651746686 -8.595053168345464
    vertex 64.50000000001148 42.49999999999649 -28.389202061197203
    vertex 64.47810000001151 42.7078999999965 -28.38920206119717
  endloop
endfacet
facet normal 0.9874852368915786 0.15771110324197848 0.0003388736946586129
  outer loop
    vertex 64.5527597438403 42.218129651746686 -8.595053168345464
    vertex 64.47810000001151 42.7078999999965 -28.38920206119717
    vertex 64.49713804949575 42.358031674560436 -8.740064378708194
  endloop
endfacet
facet normal 0.8975344433115754 0.44087286603390513 0.007939714379677068
  outer loop
    vertex 64.49713804949575 42.358031674560436 -8.740064378708194
    vertex 64.47810000001151 42.7078999999965 -28.38920206119717
    vertex 64.41350000001157 42.90669999999652 -28.389202061197093
  endloop
endfacet
facet normal 0.8975344433115754 0.44087286603390513 0.007939714379677068
  outer loop
    vertex 64.49713804949575 42.358031674560436 -8.740064378708194
    vertex 64.41350000001157 42.90669999999652 -28.389202061197093
    vertex 64.40111643364209 42.48351319873763 -8.877001212244748
  endloop
endfacet
facet normal 0.7415859602279099 0.6706626189794037 0.016183791166968452
  outer loop
    vertex 64.40111643364209 42.48351319873763 -8.877001212244748
    vertex 64.41350000001157 42.90669999999652 -28.389202061197093
    vertex 64.30900000001164 43.08779999999655 -28.389202061196972
  endloop
endfacet
facet normal 0.807545293596606 0.5896088744861149 0.015230689977422319
  outer loop
    vertex 64.30900000001164 43.08779999999655 -28.389202061196972
    vertex 64.2688168273383 42.58895436883094 -8.999757368184941
    vertex 64.40111643364209 42.48351319873763 -8.877001212244748
  endloop
endfacet
facet normal 0.5569972232454479 0.8301544893642403 0.02444620799343754
  outer loop
    vertex 64.2688168273383 42.58895436883094 -8.999757368184941
    vertex 64.30900000001164 43.08779999999655 -28.389202061196972
    vertex 64.1691000000117 43.243099999996595 -28.38920206119682
  endloop
endfacet
facet normal 0.6676442542132465 0.7441649376928452 0.021672455436379936
  outer loop
    vertex 64.1691000000117 43.243099999996595 -28.38920206119682
    vertex 64.00000000001172 43.365999999996625 -28.38920206119664
    vertex 64.2688168273383 42.58895436883094 -8.999757368184941
  endloop
endfacet
facet normal 0.49821806560093207 0.8666090682897227 0.027703463084681586
  outer loop
    vertex 64.00000000001172 43.365999999996625 -28.38920206119664
    vertex 64.10611455684007 42.66988505516535 -9.103088947018117
    vertex 64.2688168273383 42.58895436883094 -8.999757368184941
  endloop
endfacet
facet normal 0.49821806560093207 0.8666090682897227 0.027703463084681586
  outer loop
    vertex 64.00000000001172 43.365999999996625 -28.38920206119664
    vertex 63.80900000001174 43.45109999999669 -28.389202061196443
    vertex 64.10611455684007 42.66988505516535 -9.103088947018117
  endloop
endfacet
facet normal 0.3072629597668496 0.9510341026877853 0.0335202786407682
  outer loop
    vertex 63.80900000001174 43.45109999999669 -28.389202061196443
    vertex 63.92002937004796 42.72274372063054 -9.182469516062351
    vertex 64.10611455684007 42.66988505516535 -9.103088947018117
  endloop
endfacet
facet normal 0.3072629597668496 0.9510341026877853 0.0335202786407682
  outer loop
    vertex 63.80900000001174 43.45109999999669 -28.389202061196443
    vertex 63.60450000001177 43.494499999996734 -28.38920206119623
    vertex 63.92002937004796 42.72274372063054 -9.182469516062351
  endloop
endfacet
facet normal 0.9256264202291817 0.37843854213558953 -8.506192407076755e-13
  outer loop
    vertex 63.60450000001628 43.494499999996215 -23.989202061196227
    vertex 63.92002937004796 42.72274372063054 -9.182469516062351
    vertex 63.60450000001177 43.494499999996734 -28.38920206119623
  endloop
endfacet
facet normal 0.9256264202291817 0.37843854213558953 -8.506192407076755e-13
  outer loop
    vertex 63.92002937004796 42.72274372063054 -9.182469516062351
    vertex 63.60450000001628 43.494499999996215 -23.989202061196227
    vertex 63.60450000003051 43.49449999999244 -9.98370587586273
  endloop
endfacet
facet normal -0.10594546554577348 0.6950057006462125 0.7111558439607713
  outer loop
    vertex 63.92002937004796 42.72274372063054 -9.182469516062351
    vertex 63.60450000003051 43.49449999999244 -9.98370587586273
    vertex 63.718738345799565 42.74509273530419 -9.234298611174482
  endloop
endfacet
endsolid Useless_Box
