solid Sprejemnik
facet normal 0.0 0.0 -1.0
  outer loop
    vertex 33.50000000000001 14.999999999999998 0.0
    vertex 0.0 0.0 0.0
    vertex 0.0 14.999999999999998 0.0
  endloop
endfacet
facet normal 0.0 0.0 -1.0
  outer loop
    vertex 0.0 0.0 0.0
    vertex 33.50000000000001 14.999999999999998 0.0
    vertex 33.50000000000001 0.0 0.0
  endloop
endfacet
facet normal 0.0 1.0 0.0
  outer loop
    vertex 0.0 14.999999999999998 15.999999999999998
    vertex 33.50000000000001 14.999999999999998 0.0
    vertex 0.0 14.999999999999998 0.0
  endloop
endfacet
facet normal 0.0 1.0 0.0
  outer loop
    vertex 33.50000000000001 14.999999999999998 0.0
    vertex 0.0 14.999999999999998 15.999999999999998
    vertex 33.50000000000001 14.999999999999998 15.999999999999998
  endloop
endfacet
facet normal -1.0 0.0 0.0
  outer loop
    vertex 0.0 14.999999999999998 15.999999999999998
    vertex 0.0 0.0 0.0
    vertex 0.0 0.0 15.999999999999998
  endloop
endfacet
facet normal -1.0 0.0 0.0
  outer loop
    vertex 0.0 0.0 0.0
    vertex 0.0 14.999999999999998 15.999999999999998
    vertex 0.0 14.999999999999998 0.0
  endloop
endfacet
facet normal -0.0 -1.0 -0.0
  outer loop
    vertex 33.50000000000001 0.0 15.999999999999998
    vertex 0.0 0.0 0.0
    vertex 33.50000000000001 0.0 0.0
  endloop
endfacet
facet normal -0.0 -1.0 -0.0
  outer loop
    vertex 0.0 0.0 0.0
    vertex 33.50000000000001 0.0 15.999999999999998
    vertex 0.0 0.0 15.999999999999998
  endloop
endfacet
facet normal -1.0 0.0 0.0
  outer loop
    vertex 32.00000000000001 13.499999999999998 15.999999999999998
    vertex 32.00000000000001 6.9 1.9999999999999998
    vertex 32.00000000000001 6.9 15.999999999999998
  endloop
endfacet
facet normal -1.0 0.0 0.0
  outer loop
    vertex 32.00000000000001 6.9 1.9999999999999998
    vertex 32.00000000000001 13.499999999999998 15.999999999999998
    vertex 32.00000000000001 13.499999999999998 1.9999999999999998
  endloop
endfacet
facet normal 0.0 -1.0 0.0
  outer loop
    vertex 6.900000000000001 13.499999999999998 15.999999999999998
    vertex 1.5 13.499999999999998 9.99999999999999
    vertex 6.900000000000001 13.499999999999998 9.99999999999999
  endloop
endfacet
facet normal 0.0 -1.0 0.0
  outer loop
    vertex 1.5 13.499999999999998 9.99999999999999
    vertex 6.900000000000001 13.499999999999998 15.999999999999998
    vertex 1.5 13.499999999999998 15.999999999999998
  endloop
endfacet
facet normal 1.0 -0.0 -0.0
  outer loop
    vertex 1.4999999999999998 3.5000000000000004 1.9999999999999996
    vertex 1.4999999999999998 1.5 15.999999999999998
    vertex 1.4999999999999998 1.5 1.9999999999999998
  endloop
endfacet
facet normal 1.0 -0.0 -0.0
  outer loop
    vertex 1.4999999999999998 1.5 15.999999999999998
    vertex 1.4999999999999998 3.5000000000000004 1.9999999999999996
    vertex 1.4999999999999998 3.5000000000000004 15.999999999999998
  endloop
endfacet
facet normal 7.833240229299714e-18 1.0 0.0
  outer loop
    vertex 1.4999999999999998 1.5 15.999999999999998
    vertex 32.00000000000001 1.4999999999999998 1.9999999999999998
    vertex 1.4999999999999998 1.5 1.9999999999999998
  endloop
endfacet
facet normal 7.833240229299714e-18 1.0 0.0
  outer loop
    vertex 32.00000000000001 1.4999999999999998 1.9999999999999998
    vertex 1.4999999999999998 1.5 15.999999999999998
    vertex 32.00000000000001 1.4999999999999998 15.999999999999998
  endloop
endfacet
facet normal -9.791550286624647e-17 7.049916206369769e-17 1.0
  outer loop
    vertex 6.900000000000001 11.000000000000005 9.99999999999999
    vertex 1.5 13.499999999999998 9.99999999999999
    vertex 1.5 10.999999999999996 9.99999999999999
  endloop
endfacet
facet normal -9.791550286624647e-17 7.049916206369769e-17 1.0
  outer loop
    vertex 1.5 13.499999999999998 9.99999999999999
    vertex 6.900000000000001 11.000000000000005 9.99999999999999
    vertex 6.900000000000001 13.499999999999998 9.99999999999999
  endloop
endfacet
facet normal -0.0 -0.0 1.0
  outer loop
    vertex 2.4999999999999996 3.5000000000000004 15.999999999999998
    vertex 1.4999999999999998 4.5 15.999999999999998
    vertex 1.4999999999999998 3.5000000000000004 15.999999999999998
  endloop
endfacet
facet normal -0.0 -0.0 1.0
  outer loop
    vertex 1.4999999999999998 4.5 15.999999999999998
    vertex 2.4999999999999996 3.5000000000000004 15.999999999999998
    vertex 2.4999999999999996 4.5 15.999999999999998
  endloop
endfacet
facet normal -0.0 -0.0 1.0
  outer loop
    vertex 2.4999999999999996 5.9 15.999999999999998
    vertex 1.4999999999999998 6.9 15.999999999999998
    vertex 1.4999999999999998 5.9 15.999999999999998
  endloop
endfacet
facet normal -0.0 -0.0 1.0
  outer loop
    vertex 1.4999999999999998 6.9 15.999999999999998
    vertex 2.4999999999999996 5.9 15.999999999999998
    vertex 2.4999999999999996 6.9 15.999999999999998
  endloop
endfacet
facet normal -0.0 -0.0 1.0
  outer loop
    vertex 3.222175638369595 9.999999999999998 15.999999999999998
    vertex 1.5 10.999999999999998 15.999999999999998
    vertex 1.5 9.999999999999998 15.999999999999998
  endloop
endfacet
facet normal -0.0 -0.0 1.0
  outer loop
    vertex 1.5 10.999999999999998 15.999999999999998
    vertex 3.222175638369595 9.999999999999998 15.999999999999998
    vertex 4.200000000000001 11.000000000000002 15.999999999999998
  endloop
endfacet
facet normal -0.0 -0.0 1.0
  outer loop
    vertex 7.900000000000001 11.000000000000007 15.999999999999998
    vertex 6.900000000000001 13.499999999999998 15.999999999999998
    vertex 6.900000000000001 11.000000000000007 15.999999999999998
  endloop
endfacet
facet normal -0.0 -0.0 1.0
  outer loop
    vertex 0.0 0.0 15.999999999999998
    vertex 1.4999999999999998 1.5 15.999999999999998
    vertex 0.0 14.999999999999998 15.999999999999998
  endloop
endfacet
facet normal -0.0 -0.0 1.0
  outer loop
    vertex 1.4999999999999998 1.5 15.999999999999998
    vertex 0.0 0.0 15.999999999999998
    vertex 33.50000000000001 0.0 15.999999999999998
  endloop
endfacet
facet normal -0.0 -0.0 1.0
  outer loop
    vertex 1.4999999999999998 1.5 15.999999999999998
    vertex 33.50000000000001 0.0 15.999999999999998
    vertex 32.00000000000001 1.4999999999999998 15.999999999999998
  endloop
endfacet
facet normal -0.0 -0.0 1.0
  outer loop
    vertex 32.00000000000001 1.4999999999999998 15.999999999999998
    vertex 33.50000000000001 0.0 15.999999999999998
    vertex 32.00000000000001 3.499999999999999 15.999999999999998
  endloop
endfacet
facet normal -0.0 -0.0 1.0
  outer loop
    vertex 32.00000000000001 3.499999999999999 15.999999999999998
    vertex 33.50000000000001 0.0 15.999999999999998
    vertex 32.00000000000001 4.5 15.999999999999998
  endloop
endfacet
facet normal -0.0 -0.0 1.0
  outer loop
    vertex 32.00000000000001 4.5 15.999999999999998
    vertex 33.50000000000001 0.0 15.999999999999998
    vertex 32.00000000000001 5.9 15.999999999999998
  endloop
endfacet
facet normal -0.0 -0.0 1.0
  outer loop
    vertex 32.00000000000001 5.9 15.999999999999998
    vertex 33.50000000000001 0.0 15.999999999999998
    vertex 32.00000000000001 6.9 15.999999999999998
  endloop
endfacet
facet normal -0.0 -0.0 1.0
  outer loop
    vertex 32.00000000000001 6.9 15.999999999999998
    vertex 33.50000000000001 0.0 15.999999999999998
    vertex 32.00000000000001 13.499999999999998 15.999999999999998
  endloop
endfacet
facet normal -0.0 -0.0 1.0
  outer loop
    vertex 0.0 14.999999999999998 15.999999999999998
    vertex 1.5 13.499999999999998 15.999999999999998
    vertex 33.50000000000001 14.999999999999998 15.999999999999998
  endloop
endfacet
facet normal -0.0 -0.0 1.0
  outer loop
    vertex 1.5 13.499999999999998 15.999999999999998
    vertex 0.0 14.999999999999998 15.999999999999998
    vertex 1.4999999999999998 6.9 15.999999999999998
  endloop
endfacet
facet normal -0.0 -0.0 1.0
  outer loop
    vertex 1.4999999999999998 6.9 15.999999999999998
    vertex 0.0 14.999999999999998 15.999999999999998
    vertex 1.4999999999999998 1.5 15.999999999999998
  endloop
endfacet
facet normal -0.0 -0.0 1.0
  outer loop
    vertex 1.4999999999999998 6.9 15.999999999999998
    vertex 1.4999999999999998 1.5 15.999999999999998
    vertex 1.4999999999999998 3.5000000000000004 15.999999999999998
  endloop
endfacet
facet normal -0.0 -0.0 1.0
  outer loop
    vertex 1.4999999999999998 6.9 15.999999999999998
    vertex 1.4999999999999998 3.5000000000000004 15.999999999999998
    vertex 1.4999999999999998 4.5 15.999999999999998
  endloop
endfacet
facet normal -0.0 -0.0 1.0
  outer loop
    vertex 1.4999999999999998 6.9 15.999999999999998
    vertex 1.4999999999999998 4.5 15.999999999999998
    vertex 1.4999999999999998 5.9 15.999999999999998
  endloop
endfacet
facet normal -0.0 -0.0 1.0
  outer loop
    vertex 1.5 13.499999999999998 15.999999999999998
    vertex 1.4999999999999998 6.9 15.999999999999998
    vertex 1.5 9.999999999999998 15.999999999999998
  endloop
endfacet
facet normal -0.0 -0.0 1.0
  outer loop
    vertex 1.5 13.499999999999998 15.999999999999998
    vertex 1.5 9.999999999999998 15.999999999999998
    vertex 1.5 10.999999999999998 15.999999999999998
  endloop
endfacet
facet normal -0.0 -0.0 1.0
  outer loop
    vertex 33.50000000000001 14.999999999999998 15.999999999999998
    vertex 1.5 13.499999999999998 15.999999999999998
    vertex 6.900000000000001 13.499999999999998 15.999999999999998
  endloop
endfacet
facet normal -0.0 -0.0 1.0
  outer loop
    vertex 33.50000000000001 14.999999999999998 15.999999999999998
    vertex 6.900000000000001 13.499999999999998 15.999999999999998
    vertex 7.900000000000002 13.499999999999998 15.999999999999998
  endloop
endfacet
facet normal -0.0 -0.0 1.0
  outer loop
    vertex 7.900000000000002 13.499999999999998 15.999999999999998
    vertex 6.900000000000001 13.499999999999998 15.999999999999998
    vertex 7.900000000000001 11.000000000000007 15.999999999999998
  endloop
endfacet
facet normal -0.0 -0.0 1.0
  outer loop
    vertex 33.50000000000001 14.999999999999998 15.999999999999998
    vertex 7.900000000000002 13.499999999999998 15.999999999999998
    vertex 32.00000000000001 13.499999999999998 15.999999999999998
  endloop
endfacet
facet normal -0.0 -0.0 1.0
  outer loop
    vertex 33.50000000000001 14.999999999999998 15.999999999999998
    vertex 32.00000000000001 13.499999999999998 15.999999999999998
    vertex 33.50000000000001 0.0 15.999999999999998
  endloop
endfacet
facet normal -0.0 -0.0 1.0
  outer loop
    vertex 32.00000000000001 5.9 15.999999999999998
    vertex 31.00000000000001 6.9 15.999999999999998
    vertex 31.00000000000001 5.9 15.999999999999998
  endloop
endfacet
facet normal -0.0 -0.0 1.0
  outer loop
    vertex 31.00000000000001 6.9 15.999999999999998
    vertex 32.00000000000001 5.9 15.999999999999998
    vertex 32.00000000000001 6.9 15.999999999999998
  endloop
endfacet
facet normal -0.0 -0.0 1.0
  outer loop
    vertex 32.00000000000001 3.499999999999999 15.999999999999998
    vertex 31.00000000000001 4.5 15.999999999999998
    vertex 31.00000000000001 3.499999999999999 15.999999999999998
  endloop
endfacet
facet normal -0.0 -0.0 1.0
  outer loop
    vertex 31.00000000000001 4.5 15.999999999999998
    vertex 32.00000000000001 3.499999999999999 15.999999999999998
    vertex 32.00000000000001 4.5 15.999999999999998
  endloop
endfacet
facet normal 1.0 0.0 0.0
  outer loop
    vertex 33.50000000000001 14.999999999999998 0.0
    vertex 33.50000000000001 0.0 15.999999999999998
    vertex 33.50000000000001 0.0 0.0
  endloop
endfacet
facet normal 1.0 0.0 0.0
  outer loop
    vertex 33.50000000000001 0.0 15.999999999999998
    vertex 33.50000000000001 14.999999999999998 0.0
    vertex 33.50000000000001 14.999999999999998 15.999999999999998
  endloop
endfacet
facet normal 1.0 -1.1370832590918947e-16 1.2985655553896539e-33
  outer loop
    vertex 1.5 9.999999999999998 2.0000000000000004
    vertex 1.4999999999999998 6.9 15.999999999999998
    vertex 1.4999999999999998 6.9 1.9999999999999998
  endloop
endfacet
facet normal 1.0 -1.1370832590918947e-16 1.2985655553896539e-33
  outer loop
    vertex 1.4999999999999998 6.9 15.999999999999998
    vertex 1.5 9.999999999999998 2.0000000000000004
    vertex 1.5 9.999999999999998 15.999999999999998
  endloop
endfacet
facet normal 1.0 -0.0 -0.0
  outer loop
    vertex 1.4999999999999998 5.9 1.9999999999999998
    vertex 1.4999999999999998 4.5 15.999999999999998
    vertex 1.4999999999999998 4.5 1.9999999999999998
  endloop
endfacet
facet normal 1.0 -0.0 -0.0
  outer loop
    vertex 1.4999999999999998 4.5 15.999999999999998
    vertex 1.4999999999999998 5.9 1.9999999999999998
    vertex 1.4999999999999998 5.9 15.999999999999998
  endloop
endfacet
facet normal 1.0 0.0 0.0
  outer loop
    vertex 2.4999999999999996 6.9 1.9999999999999998
    vertex 2.4999999999999996 5.9 15.999999999999998
    vertex 2.4999999999999996 5.9 1.9999999999999998
  endloop
endfacet
facet normal 1.0 0.0 0.0
  outer loop
    vertex 2.4999999999999996 5.9 15.999999999999998
    vertex 2.4999999999999996 6.9 1.9999999999999998
    vertex 2.4999999999999996 6.9 15.999999999999998
  endloop
endfacet
facet normal -0.0 -1.0 -0.0
  outer loop
    vertex 2.4999999999999996 5.9 15.999999999999998
    vertex 1.4999999999999998 5.9 1.9999999999999998
    vertex 2.4999999999999996 5.9 1.9999999999999998
  endloop
endfacet
facet normal -0.0 -1.0 -0.0
  outer loop
    vertex 1.4999999999999998 5.9 1.9999999999999998
    vertex 2.4999999999999996 5.9 15.999999999999998
    vertex 1.4999999999999998 5.9 15.999999999999998
  endloop
endfacet
facet normal 0.0 1.0 -0.0
  outer loop
    vertex 1.4999999999999998 6.9 15.999999999999998
    vertex 2.4999999999999996 6.9 1.9999999999999998
    vertex 1.4999999999999998 6.9 1.9999999999999998
  endloop
endfacet
facet normal 0.0 1.0 -0.0
  outer loop
    vertex 2.4999999999999996 6.9 1.9999999999999998
    vertex 1.4999999999999998 6.9 15.999999999999998
    vertex 2.4999999999999996 6.9 15.999999999999998
  endloop
endfacet
facet normal 1.0 0.0 0.0
  outer loop
    vertex 2.4999999999999996 4.5 1.9999999999999998
    vertex 2.4999999999999996 3.5000000000000004 15.999999999999998
    vertex 2.4999999999999996 3.5000000000000004 1.9999999999999996
  endloop
endfacet
facet normal 1.0 0.0 0.0
  outer loop
    vertex 2.4999999999999996 3.5000000000000004 15.999999999999998
    vertex 2.4999999999999996 4.5 1.9999999999999998
    vertex 2.4999999999999996 4.5 15.999999999999998
  endloop
endfacet
facet normal -0.0 -1.0 -0.0
  outer loop
    vertex 2.4999999999999996 3.5000000000000004 15.999999999999998
    vertex 1.4999999999999998 3.5000000000000004 1.9999999999999996
    vertex 2.4999999999999996 3.5000000000000004 1.9999999999999996
  endloop
endfacet
facet normal -0.0 -1.0 -0.0
  outer loop
    vertex 1.4999999999999998 3.5000000000000004 1.9999999999999996
    vertex 2.4999999999999996 3.5000000000000004 15.999999999999998
    vertex 1.4999999999999998 3.5000000000000004 15.999999999999998
  endloop
endfacet
facet normal 0.0 1.0 -0.0
  outer loop
    vertex 1.4999999999999998 4.5 15.999999999999998
    vertex 2.4999999999999996 4.5 1.9999999999999998
    vertex 1.4999999999999998 4.5 1.9999999999999998
  endloop
endfacet
facet normal 0.0 1.0 -0.0
  outer loop
    vertex 2.4999999999999996 4.5 1.9999999999999998
    vertex 1.4999999999999998 4.5 15.999999999999998
    vertex 2.4999999999999996 4.5 15.999999999999998
  endloop
endfacet
facet normal -1.0 0.0 0.0
  outer loop
    vertex 32.00000000000001 3.499999999999999 15.999999999999998
    vertex 32.00000000000001 1.4999999999999998 1.9999999999999998
    vertex 32.00000000000001 1.4999999999999998 15.999999999999998
  endloop
endfacet
facet normal -1.0 0.0 0.0
  outer loop
    vertex 32.00000000000001 1.4999999999999998 1.9999999999999998
    vertex 32.00000000000001 3.499999999999999 15.999999999999998
    vertex 32.00000000000001 3.499999999999999 1.9999999999999998
  endloop
endfacet
facet normal -1.0 0.0 0.0
  outer loop
    vertex 32.00000000000001 5.9 15.999999999999998
    vertex 32.00000000000001 4.5 1.9999999999999998
    vertex 32.00000000000001 4.5 15.999999999999998
  endloop
endfacet
facet normal -1.0 0.0 0.0
  outer loop
    vertex 32.00000000000001 4.5 1.9999999999999998
    vertex 32.00000000000001 5.9 15.999999999999998
    vertex 32.00000000000001 5.9 1.9999999999999998
  endloop
endfacet
facet normal -1.0 0.0 0.0
  outer loop
    vertex 31.00000000000001 4.5 15.999999999999998
    vertex 31.00000000000001 3.499999999999999 1.9999999999999998
    vertex 31.00000000000001 3.499999999999999 15.999999999999998
  endloop
endfacet
facet normal -1.0 0.0 0.0
  outer loop
    vertex 31.00000000000001 3.499999999999999 1.9999999999999998
    vertex 31.00000000000001 4.5 15.999999999999998
    vertex 31.00000000000001 4.5 1.9999999999999998
  endloop
endfacet
facet normal 0.0 1.0 0.0
  outer loop
    vertex 31.00000000000001 4.5 15.999999999999998
    vertex 32.00000000000001 4.5 1.9999999999999998
    vertex 31.00000000000001 4.5 1.9999999999999998
  endloop
endfacet
facet normal 0.0 1.0 0.0
  outer loop
    vertex 32.00000000000001 4.5 1.9999999999999998
    vertex 31.00000000000001 4.5 15.999999999999998
    vertex 32.00000000000001 4.5 15.999999999999998
  endloop
endfacet
facet normal 0.0 -1.0 0.0
  outer loop
    vertex 32.00000000000001 3.499999999999999 15.999999999999998
    vertex 31.00000000000001 3.499999999999999 1.9999999999999998
    vertex 32.00000000000001 3.499999999999999 1.9999999999999998
  endloop
endfacet
facet normal 0.0 -1.0 0.0
  outer loop
    vertex 31.00000000000001 3.499999999999999 1.9999999999999998
    vertex 32.00000000000001 3.499999999999999 15.999999999999998
    vertex 31.00000000000001 3.499999999999999 15.999999999999998
  endloop
endfacet
facet normal -1.0 0.0 0.0
  outer loop
    vertex 31.00000000000001 6.9 15.999999999999998
    vertex 31.00000000000001 5.9 1.9999999999999998
    vertex 31.00000000000001 5.9 15.999999999999998
  endloop
endfacet
facet normal -1.0 0.0 0.0
  outer loop
    vertex 31.00000000000001 5.9 1.9999999999999998
    vertex 31.00000000000001 6.9 15.999999999999998
    vertex 31.00000000000001 6.9 1.9999999999999998
  endloop
endfacet
facet normal 0.0 1.0 0.0
  outer loop
    vertex 31.00000000000001 6.9 15.999999999999998
    vertex 32.00000000000001 6.9 1.9999999999999998
    vertex 31.00000000000001 6.9 1.9999999999999998
  endloop
endfacet
facet normal 0.0 1.0 0.0
  outer loop
    vertex 32.00000000000001 6.9 1.9999999999999998
    vertex 31.00000000000001 6.9 15.999999999999998
    vertex 32.00000000000001 6.9 15.999999999999998
  endloop
endfacet
facet normal 0.0 -1.0 0.0
  outer loop
    vertex 32.00000000000001 5.9 15.999999999999998
    vertex 31.00000000000001 5.9 1.9999999999999998
    vertex 32.00000000000001 5.9 1.9999999999999998
  endloop
endfacet
facet normal 0.0 -1.0 0.0
  outer loop
    vertex 31.00000000000001 5.9 1.9999999999999998
    vertex 32.00000000000001 5.9 15.999999999999998
    vertex 31.00000000000001 5.9 15.999999999999998
  endloop
endfacet
facet normal 1.0 -0.0 -0.0
  outer loop
    vertex 1.5 13.499999999999998 9.99999999999999
    vertex 1.5 10.999999999999998 15.999999999999998
    vertex 1.5 10.999999999999996 9.99999999999999
  endloop
endfacet
facet normal 1.0 -0.0 -0.0
  outer loop
    vertex 1.5 10.999999999999998 15.999999999999998
    vertex 1.5 13.499999999999998 9.99999999999999
    vertex 1.5 13.499999999999998 15.999999999999998
  endloop
endfacet
facet normal 0.0 -1.0 0.0
  outer loop
    vertex 32.00000000000001 13.499999999999998 15.999999999999998
    vertex 7.900000000000002 13.499999999999998 2.0
    vertex 32.00000000000001 13.499999999999998 1.9999999999999998
  endloop
endfacet
facet normal 0.0 -1.0 0.0
  outer loop
    vertex 7.900000000000002 13.499999999999998 2.0
    vertex 32.00000000000001 13.499999999999998 15.999999999999998
    vertex 7.900000000000002 13.499999999999998 15.999999999999998
  endloop
endfacet
facet normal -1.0 0.0 0.0
  outer loop
    vertex 6.900000000000001 13.499999999999998 15.999999999999998
    vertex 6.900000000000001 11.000000000000007 12.999999999999998
    vertex 6.900000000000001 11.000000000000007 15.999999999999998
  endloop
endfacet
facet normal -1.0 0.0 0.0
  outer loop
    vertex 6.900000000000001 11.000000000000007 12.999999999999998
    vertex 6.900000000000001 13.499999999999998 9.99999999999999
    vertex 6.900000000000001 11.000000000000005 9.99999999999999
  endloop
endfacet
facet normal -1.0 0.0 0.0
  outer loop
    vertex 6.900000000000001 13.499999999999998 9.99999999999999
    vertex 6.900000000000001 11.000000000000007 12.999999999999998
    vertex 6.900000000000001 13.499999999999998 15.999999999999998
  endloop
endfacet
facet normal 1.0 -4.3384099731506126e-16 -1.2050380732321909e-33
  outer loop
    vertex 7.900000000000002 13.499999999999998 2.0
    vertex 7.900000000000001 9.999999999999998 12.999999999999998
    vertex 7.900000000000001 9.999999999999998 2.0000000000000004
  endloop
endfacet
facet normal 1.0 -4.3384099731506126e-16 -1.2050380732321909e-33
  outer loop
    vertex 7.900000000000001 9.999999999999998 12.999999999999998
    vertex 7.900000000000002 13.499999999999998 2.0
    vertex 7.900000000000001 11.000000000000007 12.999999999999998
  endloop
endfacet
facet normal 1.0 -4.3384099731506126e-16 -1.2050380732321909e-33
  outer loop
    vertex 7.900000000000001 11.000000000000007 12.999999999999998
    vertex 7.900000000000002 13.499999999999998 2.0
    vertex 7.900000000000001 11.000000000000007 15.999999999999998
  endloop
endfacet
facet normal 1.0 -4.3384099731506126e-16 -1.2050380732321909e-33
  outer loop
    vertex 7.900000000000001 11.000000000000007 15.999999999999998
    vertex 7.900000000000002 13.499999999999998 2.0
    vertex 7.900000000000002 13.499999999999998 15.999999999999998
  endloop
endfacet
facet normal 1.574165535604938e-18 -4.5983498158119064e-17 1.0
  outer loop
    vertex 2.4999999999999996 6.9 1.9999999999999998
    vertex 1.5 9.999999999999998 2.0000000000000004
    vertex 1.4999999999999998 6.9 1.9999999999999998
  endloop
endfacet
facet normal 1.574165535604938e-18 -4.5983498158119064e-17 1.0
  outer loop
    vertex 1.5 9.999999999999998 2.0000000000000004
    vertex 2.4999999999999996 6.9 1.9999999999999998
    vertex 7.900000000000001 9.999999999999998 2.0000000000000004
  endloop
endfacet
facet normal 1.574165535604938e-18 -4.5983498158119064e-17 1.0
  outer loop
    vertex 2.4999999999999996 4.5 1.9999999999999998
    vertex 1.4999999999999998 5.9 1.9999999999999998
    vertex 1.4999999999999998 4.5 1.9999999999999998
  endloop
endfacet
facet normal 1.574165535604938e-18 -4.5983498158119064e-17 1.0
  outer loop
    vertex 1.4999999999999998 5.9 1.9999999999999998
    vertex 2.4999999999999996 4.5 1.9999999999999998
    vertex 2.4999999999999996 5.9 1.9999999999999998
  endloop
endfacet
facet normal 1.574165535604938e-18 -4.5983498158119064e-17 1.0
  outer loop
    vertex 32.00000000000001 1.4999999999999998 1.9999999999999998
    vertex 1.4999999999999998 3.5000000000000004 1.9999999999999996
    vertex 1.4999999999999998 1.5 1.9999999999999998
  endloop
endfacet
facet normal 1.574165535604938e-18 -4.5983498158119064e-17 1.0
  outer loop
    vertex 1.4999999999999998 3.5000000000000004 1.9999999999999996
    vertex 32.00000000000001 1.4999999999999998 1.9999999999999998
    vertex 2.4999999999999996 3.5000000000000004 1.9999999999999996
  endloop
endfacet
facet normal 1.574165535604938e-18 -4.5983498158119064e-17 1.0
  outer loop
    vertex 2.4999999999999996 3.5000000000000004 1.9999999999999996
    vertex 32.00000000000001 1.4999999999999998 1.9999999999999998
    vertex 2.4999999999999996 4.5 1.9999999999999998
  endloop
endfacet
facet normal 1.574165535604938e-18 -4.5983498158119064e-17 1.0
  outer loop
    vertex 2.4999999999999996 4.5 1.9999999999999998
    vertex 32.00000000000001 1.4999999999999998 1.9999999999999998
    vertex 2.4999999999999996 5.9 1.9999999999999998
  endloop
endfacet
facet normal 1.574165535604938e-18 -4.5983498158119064e-17 1.0
  outer loop
    vertex 2.4999999999999996 5.9 1.9999999999999998
    vertex 32.00000000000001 1.4999999999999998 1.9999999999999998
    vertex 2.4999999999999996 6.9 1.9999999999999998
  endloop
endfacet
facet normal 1.574165535604938e-18 -4.5983498158119064e-17 1.0
  outer loop
    vertex 2.4999999999999996 6.9 1.9999999999999998
    vertex 32.00000000000001 1.4999999999999998 1.9999999999999998
    vertex 7.900000000000001 9.999999999999998 2.0000000000000004
  endloop
endfacet
facet normal 1.574165535604938e-18 -4.5983498158119064e-17 1.0
  outer loop
    vertex 7.900000000000001 9.999999999999998 2.0000000000000004
    vertex 32.00000000000001 1.4999999999999998 1.9999999999999998
    vertex 7.900000000000002 13.499999999999998 2.0
  endloop
endfacet
facet normal 1.574165535604938e-18 -4.5983498158119064e-17 1.0
  outer loop
    vertex 7.900000000000002 13.499999999999998 2.0
    vertex 32.00000000000001 1.4999999999999998 1.9999999999999998
    vertex 31.00000000000001 3.499999999999999 1.9999999999999998
  endloop
endfacet
facet normal 1.574165535604938e-18 -4.5983498158119064e-17 1.0
  outer loop
    vertex 31.00000000000001 3.499999999999999 1.9999999999999998
    vertex 32.00000000000001 1.4999999999999998 1.9999999999999998
    vertex 32.00000000000001 3.499999999999999 1.9999999999999998
  endloop
endfacet
facet normal 1.574165535604938e-18 -4.5983498158119064e-17 1.0
  outer loop
    vertex 32.00000000000001 4.5 1.9999999999999998
    vertex 31.00000000000001 5.9 1.9999999999999998
    vertex 31.00000000000001 4.5 1.9999999999999998
  endloop
endfacet
facet normal 1.574165535604938e-18 -4.5983498158119064e-17 1.0
  outer loop
    vertex 31.00000000000001 5.9 1.9999999999999998
    vertex 32.00000000000001 4.5 1.9999999999999998
    vertex 32.00000000000001 5.9 1.9999999999999998
  endloop
endfacet
facet normal 1.574165535604938e-18 -4.5983498158119064e-17 1.0
  outer loop
    vertex 7.900000000000002 13.499999999999998 2.0
    vertex 31.00000000000001 6.9 1.9999999999999998
    vertex 32.00000000000001 13.499999999999998 1.9999999999999998
  endloop
endfacet
facet normal 1.574165535604938e-18 -4.5983498158119064e-17 1.0
  outer loop
    vertex 31.00000000000001 6.9 1.9999999999999998
    vertex 7.900000000000002 13.499999999999998 2.0
    vertex 31.00000000000001 3.499999999999999 1.9999999999999998
  endloop
endfacet
facet normal 1.574165535604938e-18 -4.5983498158119064e-17 1.0
  outer loop
    vertex 31.00000000000001 6.9 1.9999999999999998
    vertex 31.00000000000001 3.499999999999999 1.9999999999999998
    vertex 31.00000000000001 4.5 1.9999999999999998
  endloop
endfacet
facet normal 1.574165535604938e-18 -4.5983498158119064e-17 1.0
  outer loop
    vertex 31.00000000000001 6.9 1.9999999999999998
    vertex 31.00000000000001 4.5 1.9999999999999998
    vertex 31.00000000000001 5.9 1.9999999999999998
  endloop
endfacet
facet normal 1.574165535604938e-18 -4.5983498158119064e-17 1.0
  outer loop
    vertex 32.00000000000001 13.499999999999998 1.9999999999999998
    vertex 31.00000000000001 6.9 1.9999999999999998
    vertex 32.00000000000001 6.9 1.9999999999999998
  endloop
endfacet
facet normal -0.0 -1.0 -0.0
  outer loop
    vertex 7.900000000000001 11.000000000000007 15.999999999999998
    vertex 6.900000000000001 11.000000000000007 12.999999999999998
    vertex 7.900000000000001 11.000000000000007 12.999999999999998
  endloop
endfacet
facet normal -0.0 -1.0 -0.0
  outer loop
    vertex 6.900000000000001 11.000000000000007 12.999999999999998
    vertex 7.900000000000001 11.000000000000007 15.999999999999998
    vertex 6.900000000000001 11.000000000000007 15.999999999999998
  endloop
endfacet
facet normal 0.0 -1.0 0.0
  outer loop
    vertex 7.900000000000001 9.999999999999998 12.999999999999998
    vertex 1.5 9.999999999999998 2.0000000000000004
    vertex 7.900000000000001 9.999999999999998 2.0000000000000004
  endloop
endfacet
facet normal 0.0 -1.0 0.0
  outer loop
    vertex 1.5 9.999999999999998 2.0000000000000004
    vertex 7.900000000000001 9.999999999999998 12.999999999999998
    vertex 3.222175638369595 9.999999999999998 12.999999999999998
  endloop
endfacet
facet normal 0.0 -1.0 0.0
  outer loop
    vertex 1.5 9.999999999999998 2.0000000000000004
    vertex 3.222175638369595 9.999999999999998 12.999999999999998
    vertex 1.5 9.999999999999998 15.999999999999998
  endloop
endfacet
facet normal 0.0 -1.0 0.0
  outer loop
    vertex 1.5 9.999999999999998 15.999999999999998
    vertex 3.222175638369595 9.999999999999998 12.999999999999998
    vertex 3.222175638369595 9.999999999999998 15.999999999999998
  endloop
endfacet
facet normal -1.6362768478981624e-15 1.0 -2.506636873375906e-16
  outer loop
    vertex 1.5 10.999999999999998 15.999999999999998
    vertex 6.900000000000001 11.000000000000005 9.99999999999999
    vertex 1.5 10.999999999999996 9.99999999999999
  endloop
endfacet
facet normal -1.6362768478981624e-15 1.0 -2.506636873375906e-16
  outer loop
    vertex 6.900000000000001 11.000000000000005 9.99999999999999
    vertex 1.5 10.999999999999998 15.999999999999998
    vertex 4.200000000000001 11.000000000000002 12.999999999999998
  endloop
endfacet
facet normal -1.6362768478981624e-15 1.0 -2.506636873375906e-16
  outer loop
    vertex 4.200000000000001 11.000000000000002 12.999999999999998
    vertex 1.5 10.999999999999998 15.999999999999998
    vertex 4.200000000000001 11.000000000000002 15.999999999999998
  endloop
endfacet
facet normal -1.6362768478981624e-15 1.0 -2.506636873375906e-16
  outer loop
    vertex 6.900000000000001 11.000000000000007 12.999999999999998
    vertex 6.900000000000001 11.000000000000005 9.99999999999999
    vertex 4.200000000000001 11.000000000000002 12.999999999999998
  endloop
endfacet
facet normal -0.0 -0.0 1.0
  outer loop
    vertex 7.900000000000001 9.999999999999998 12.999999999999998
    vertex 4.200000000000001 11.000000000000002 12.999999999999998
    vertex 3.222175638369595 9.999999999999998 12.999999999999998
  endloop
endfacet
facet normal -0.0 -0.0 1.0
  outer loop
    vertex 4.200000000000001 11.000000000000002 12.999999999999998
    vertex 7.900000000000001 9.999999999999998 12.999999999999998
    vertex 6.900000000000001 11.000000000000007 12.999999999999998
  endloop
endfacet
facet normal -0.0 -0.0 1.0
  outer loop
    vertex 6.900000000000001 11.000000000000007 12.999999999999998
    vertex 7.900000000000001 9.999999999999998 12.999999999999998
    vertex 7.900000000000001 11.000000000000007 12.999999999999998
  endloop
endfacet
facet normal 0.7149900195198207 -0.6991346594090774 -0.0
  outer loop
    vertex 4.200000000000001 11.000000000000002 12.999999999999998
    vertex 3.222175638369595 9.999999999999998 15.999999999999998
    vertex 3.222175638369595 9.999999999999998 12.999999999999998
  endloop
endfacet
facet normal 0.7149900195198207 -0.6991346594090774 -0.0
  outer loop
    vertex 3.222175638369595 9.999999999999998 15.999999999999998
    vertex 4.200000000000001 11.000000000000002 12.999999999999998
    vertex 4.200000000000001 11.000000000000002 15.999999999999998
  endloop
endfacet
endsolid Sprejemnik
